<?xml version="1.0" encoding="utf-8"?>
<!-- Generator: Adobe Illustrator 24.3.0, SVG Export Plug-In . SVG Version: 6.00 Build 0)  -->
<svg version="1.1" id="Layer_1" xmlns="http://www.w3.org/2000/svg" xmlns:xlink="http://www.w3.org/1999/xlink" x="0px" y="0px"
	 viewBox="0 0 358.8 165.8" style="enable-background:new 0 0 358.8 165.8;" xml:space="preserve">
<g transform="translate(-12.515 -1362.407)">
	<g transform="translate(0 815)">
		<text transform="matrix(1 0 0 1 14.101 597.158)" style="font-family:'Roboto-Bold'; font-size:11px;">START at NOVA</text>
		<g transform="translate(177.957 626.31)">
			<path d="M6.8,0C6.9,0,6.9,0,7,0l6.3,2.3c0.2,0,0.3,0.3,0.3,0.5c0,0.1-0.1,0.1-0.1,0.2c-0.1,0.1-0.1,0.1-0.2,0.1
				C11.7,3.7,10,4.2,8.4,4.8C7.9,5,7.5,5.1,7,5.3c-0.1,0-0.2,0-0.3,0C4.5,4.6,2.4,3.8,0.3,3.1C0.1,3,0,2.8,0,2.6c0,0,0-0.1,0-0.1
				c0.1-0.1,0.2-0.2,0.3-0.2l2.9-1.1l3.3-1.2C6.7,0,6.7,0,6.8,0z"/>
			<path d="M11.3,4.6c0,0.1,0,0.1,0,0.1c0,1,0,2,0,3c0,0.1,0,0.1-0.1,0.2C8.8,9.5,5.7,9.7,3.1,8.3C2.8,8.2,2.6,8,2.3,7.8
				c0,0-0.1-0.1-0.1-0.1c0-1,0-2.1,0-3.1c0.1,0,0.1,0,0.1,0C3.7,5.1,5,5.6,6.3,6c0.3,0.1,0.7,0.1,1,0c1.3-0.5,2.6-0.9,3.9-1.4
				C11.2,4.6,11.2,4.6,11.3,4.6z"/>
			<path d="M12.9,4c0,0.5,0,1,0,1.4c0,0.1,0,0.2,0.1,0.3c0.2,0.2,0.2,0.5,0.1,0.8c-0.2,0.3-0.5,0.4-0.8,0.3
				c-0.3-0.1-0.5-0.4-0.5-0.7c0-0.2,0.1-0.3,0.2-0.4c0-0.1,0.1-0.1,0.1-0.2c0-0.4,0-0.8,0-1.2c0-0.1,0-0.1,0.1-0.2
				C12.4,4.2,12.7,4.1,12.9,4z"/>
		</g>
		<text transform="matrix(1 0 0 1 134.949 633.256)" style="font-family:'Roboto-Bold'; font-size:9px;">Complete</text>
		<text transform="matrix(1 0 0 1 142.404 643.256)" style="font-family:'Roboto-Bold'; font-size:9px;">NOVA</text>
		<text transform="matrix(1 0 0 1 130.523 653.256)" style="font-family:'Roboto-Bold'; font-size:9px;">Associate’s </text>
		<text transform="matrix(1 0 0 1 140.055 663.256)" style="font-family:'Roboto-Bold'; font-size:9px;">Degree</text>
		<text transform="matrix(1 0 0 1 199.029 629.069)" style="font-family:'Roboto-Bold'; font-size:11px;">START</text>
		<text transform="matrix(1 0 0 1 199.029 640.069)" style="font-family:'Roboto-Bold'; font-size:11px;">at Mason</text>
		<g transform="matrix(1, 0, 0, 1, 12.51, 547.41)">
			<path style="fill:none;stroke:#F1B654;stroke-width:14;stroke-linecap:square;stroke-miterlimit:10;" d="M336,126.6V69
				c0-22.6-18.3-40.9-40.9-40.9S254.1,46.4,254.1,69v4.5"/>
		</g>
		<path style="fill:none;stroke:#000000;stroke-linecap:round;stroke-miterlimit:10;stroke-dasharray:5;" d="M266.6,622.2v-5.5
			c0-22.6,18.3-40.9,40.9-40.9c22.6,0,40.9,18.3,40.9,40.9v60.5"/>
		<path style="fill:#4DDBDB;" d="M62,645L62,645c7.7,0,14,6.3,14,14l0,0c0,7.7-6.3,14-14,14l0,0c-7.7,0-14-6.3-14-14l0,0
			C48,651.3,54.3,645,62,645z"/>
		<text transform="matrix(1 0 0 1 50.91 659)" style="font-family:'Roboto-Medium'; font-size:9px;">YEAR</text>
		<text transform="matrix(1 0 0 1 59.131 669)" style="font-family:'Roboto-Bold'; font-size:10px;">1</text>
		<g transform="translate(213.921 646.334)">
			<path style="fill:#F4E173;" d="M12.1-1.3L12.1-1.3c7.7,0,14,6.3,14,14l0,0c0,7.7-6.3,14-14,14l0,0c-7.7,0-14-6.3-14-14l0,0
				C-1.9,4.9,4.3-1.3,12.1-1.3z"/>
			<text transform="matrix(1 0 0 1 0.989 12.666)" style="font-family:'Roboto-Medium'; font-size:9px;">YEAR</text>
			<text transform="matrix(1 0 0 1 9.21 22.666)" style="font-family:'Roboto-Bold'; font-size:10px;">3</text>
		</g>
		<g transform="matrix(1, 0, 0, 1, 12.51, 547.41)">
			<path style="fill:none;stroke:#B4E555;stroke-width:14;stroke-linecap:square;stroke-miterlimit:10;" d="M172.2,70.4L172.2,70.4
				c0-22.6-18.3-40.9-40.9-40.9S90.3,47.8,90.3,70.4v9.2"/>
		</g>
		<path style="fill:none;stroke:#000000;stroke-linecap:round;stroke-miterlimit:10;stroke-dasharray:5;" d="M102.8,626.8v-9.1
			c0-22.6,18.3-40.9,40.9-40.9s40.9,18.3,40.9,40.9"/>
		
			<path style="fill:none;stroke:#000000;stroke-width:1.0005;stroke-linecap:round;stroke-linejoin:round;stroke-miterlimit:4.0021;" d="
			M183.3,614.2l1.6,1.3l1.3-1.6"/>
		<path style="fill:none;stroke:#000000;stroke-linecap:round;stroke-linejoin:round;" d="M268.1,618.7l-1.4-1.5l-1.4,1.5"/>
		<path style="fill:none;stroke:#000000;stroke-linecap:round;stroke-linejoin:round;" d="M104.3,623.3l-1.4-1.5l-1.4,1.5"/>
		<text transform="matrix(1 0 0 1 225.337 710.204)" style="font-family:'Roboto-Bold'; font-size:11px;">MASON Bachelor’s Degree</text>
		<g transform="translate(34.598 587.151) rotate(180)">
			<path d="M12.7,16.7c-0.1-1,0.7-1.9,1.7-2.1c0.6-0.2,1.2-0.3,1.8-0.4c1.1-0.1,2.1,0.7,2.4,1.8c0.5,2.1,1,4.1,1.5,6.2
				c0,0.1,0,0.2-0.1,0.3c-1.6,1.3-3.2,2.7-4.8,4C15,26.8,14.8,27,15,27.3s0.4,0.2,0.7,0.1c1.5-0.6,3.1-1.3,4.6-1.9l0.3-0.1
				c-0.1,1.2-0.6,2.3-1.4,3.2c-0.8,0.8-1.9,1.4-3.1,1.5c-1.3,0.2-2.7,0.4-4,0.5c-0.8,0.1-1-0.1-0.8-1c-0.3,0.2-0.5,0.5-0.7,0.7
				c-0.8,0.7-1.9,1-2.9,0.7c-1.3-0.3-2.3-1.1-2.8-2.4c-0.3-0.7-0.3-1.4-0.1-2.1c0.4-1.6,0.6-3.3,0.7-4.9c0-0.1,0-0.3,0.1-0.5
				c0.4,0.1,0.7,0.2,1,0.3c0.1,0,0.1,0.2,0.1,0.3c-0.1,1.2-0.2,2.3-0.2,3.5c-0.1,0.6-0.1,1.2,0,1.8c0.2,1.1,1.1,1.8,2.2,1.8
				c1.1,0,1.9-0.8,2.1-1.9c0.1-1.6,0.3-3.2,0.4-4.8c0.1-0.7,0.1-1.4,0.1-2.1c0.1-1.1-0.6-2-1.6-2.3c-1.2-0.4-2.3-0.8-3.5-1.1
				c-0.3-0.1-0.4-0.2-0.4-0.5c0-0.3-0.2-0.6-0.5-0.8C4.5,15,4,14.6,3.3,14.2c-0.8-0.5-1.4-1.4-1.5-2.3C1.3,8.7,0.6,5.6,0,2.4
				c-0.3-1,0.4-2.1,1.4-2.4c0,0,0,0,0.1,0c1.1-0.2,2.1,0.5,2.3,1.5c0,0,0,0.1,0,0.1C4.4,4.6,5,7.6,5.5,10.5c0,0.3,0.2,0.7,0.5,0.8
				c0.3,0.2,0.7,0.5,1,0.7c0.1,0,0.2,0.1,0.3,0.1c0-0.1,0-0.2,0-0.3c-0.1-0.7-0.3-1.4-0.5-2.2C6.7,9.1,6.8,8.5,7.2,8
				c1.6-2.4,3.1-4.7,4.7-7.1c0.6-0.9,1.7-1.2,2.6-0.6c0,0,0,0,0,0c0.9,0.6,1.2,1.8,0.6,2.7c0,0,0,0.1-0.1,0.1c-1,1.5-1.9,3-2.9,4.4
				c-0.4,0.6-0.8,1.2-1.2,1.8c-0.1,0.2-0.1,0.3-0.1,0.5c0.2,0.8,0.4,1.7,0.5,2.5c0,0.2,0.1,0.3,0.2,0.5c0.5,0.7,0.8,1.5,0.8,2.3
				C12.5,15.7,12.6,16.2,12.7,16.7z"/>
			<path d="M0.3,35.4c0-2.4,1.9-4.3,4.3-4.3S9,33,9,35.4c0,2.4-1.9,4.3-4.3,4.3C2.3,39.8,0.4,37.8,0.3,35.4
				C0.3,35.4,0.3,35.4,0.3,35.4z"/>
			<path d="M3,16.2c0.2,0,0.5,0.1,0.7,0.2c1.9,0.6,3.8,1.2,5.6,1.8c0.9,0.2,1.5,1.1,1.4,2c-0.1,1.5-0.2,3-0.3,4.6
				c-0.1,0.7-0.1,1.4-0.2,2.1c-0.1,0.9-0.9,1.6-1.9,1.6c-0.9-0.1-1.6-0.9-1.6-1.8c0.1-1.5,0.2-2.9,0.3-4.4c0.1-1,0.1-1-0.8-1.3
				c-1.3-0.4-2.5-0.8-3.8-1.2c-0.9-0.3-1.4-1.2-1.1-2.1c0-0.1,0.1-0.2,0.1-0.3C1.7,16.6,2.3,16.2,3,16.2z"/>
			<path d="M15.6,26.8l4.6-3.9c0.1,0.6,0.2,1.2,0.3,1.8c0,0.1-0.1,0.2-0.1,0.2C18.9,25.6,17.3,26.3,15.6,26.8
				C15.7,26.9,15.7,26.9,15.6,26.8z"/>
		</g>
		<path style="fill:none;stroke:#000000;stroke-linecap:round;stroke-linejoin:round;" d="M347.1,676.1l1.4,1.5l1.4-1.5"/>
		<g transform="translate(339.068 685.203)">
			<path d="M9.6,0c0.1,0,0.2,0,0.3,0.1c3,1.1,6,2.1,8.9,3.2c0.3,0.1,0.5,0.4,0.4,0.7c0,0.1-0.1,0.2-0.1,0.3
				c-0.1,0.1-0.2,0.1-0.3,0.2c-2.3,0.8-4.6,1.6-6.9,2.4c-0.7,0.2-1.4,0.5-2,0.7c-0.2,0.1-0.3,0.1-0.5,0c-3-1.1-6-2.1-9-3.2
				C0.2,4.3,0,4,0,3.7c0,0,0-0.1,0-0.1c0.1-0.1,0.2-0.3,0.4-0.3l4.2-1.5c1.6-0.6,3.1-1.1,4.7-1.7C9.4,0,9.5,0,9.6,0z"/>
			<path d="M16,6.5c0,0.1,0,0.1,0,0.2c0,1.4,0,2.8,0,4.2c0,0.1,0,0.2-0.1,0.2c-3.4,2.4-7.9,2.6-11.5,0.6c-0.4-0.2-0.7-0.4-1.1-0.7
				c0,0-0.1-0.1-0.1-0.2c0-1.5,0-2.9,0-4.4c0.1,0,0.1,0,0.2,0.1c1.8,0.7,3.7,1.3,5.5,2c0.4,0.2,0.9,0.2,1.4,0c1.8-0.7,3.7-1.3,5.5-2
				C15.9,6.5,15.9,6.5,16,6.5z"/>
			<path d="M18.3,5.7c0,0.7,0,1.4,0,2.1c0,0.2,0,0.3,0.2,0.4c0.3,0.3,0.4,0.8,0.1,1.1c-0.2,0.4-0.7,0.5-1.1,0.4
				c-0.4-0.1-0.7-0.5-0.6-0.9c0-0.2,0.1-0.4,0.2-0.6c0.1-0.1,0.1-0.2,0.1-0.3c0-0.6,0-1.1,0-1.7c0-0.1,0-0.2,0.2-0.2
				C17.6,5.9,17.9,5.8,18.3,5.7z"/>
		</g>
		<text transform="matrix(1 0 0 1 301.431 696.204)" style="font-family:'Roboto-Bold'; font-size:11px;">FINISH</text>
		<g transform="matrix(1, 0, 0, 1, 12.51, 547.41)">
			<path style="fill:none;stroke:#F4E173;stroke-width:14;stroke-linecap:square;stroke-miterlimit:10;" d="M172.2,96.8L172.2,96.8
				c0,5.1,0.9,10.1,2.8,14.9c8.2,21.1,31.9,31.5,53,23.4c15.8-6.1,26.2-21.3,26.1-38.2v-6.1"/>
		</g>
		<path style="fill:none;stroke:#000000;stroke-linecap:round;stroke-miterlimit:10;stroke-dasharray:5;" d="M266.6,635.7v8.6
			c0,22.6-18.3,40.9-40.9,40.9s-40.9-18.3-40.9-40.9l0,0"/>
		
			<path style="fill:none;stroke:#000000;stroke-width:1.0005;stroke-linecap:round;stroke-linejoin:round;stroke-miterlimit:4.0021;" d="
			M183.8,650.9l1.6,1.3l1.3-1.6"/>
		<path style="fill:none;stroke:#000000;stroke-linecap:round;stroke-linejoin:round;" d="M268.1,636.6l-1.4-1.5l-1.4,1.5"/>
		<g transform="matrix(1, 0, 0, 1, 12.51, 547.41)">
			<path style="fill:none;stroke:#4DDBDB;stroke-width:14;stroke-linecap:square;stroke-miterlimit:10;" d="M8.4,59.7v37.1
				c0,22.6,18.3,40.9,40.9,40.9s40.9-18.3,40.9-40.9"/>
		</g>
		<path style="fill:none;stroke:#000000;stroke-linecap:round;stroke-miterlimit:10;stroke-dasharray:5;" d="M102.8,644.3
			c0,22.6-18.3,40.9-40.9,40.9s-40.9-18.3-40.9-40.9v-39.7"/>
		<path style="fill:none;stroke:#000000;stroke-linecap:round;stroke-linejoin:round;" d="M104.3,645.4l-1.4-1.5l-1.4,1.5"/>
		<path style="fill:none;stroke:#000000;stroke-linecap:round;stroke-linejoin:round;" d="M19.5,611.6l1.4,1.5l1.4-1.5"/>
		<g transform="translate(131.921 590.334)">
			<path style="fill:#B4E555;" d="M12.1-1.3L12.1-1.3c7.7,0,14,6.3,14,14l0,0c0,7.7-6.3,14-14,14l0,0c-7.7,0-14-6.3-14-14l0,0
				C-1.9,4.9,4.3-1.3,12.1-1.3z"/>
			<text transform="matrix(1 0 0 1 0.989 12.666)" style="font-family:'Roboto-Medium'; font-size:9px;">YEAR</text>
			<text transform="matrix(1 0 0 1 9.21 22.666)" style="font-family:'Roboto-Bold'; font-size:10px;">2</text>
		</g>
		<g transform="translate(295.921 590.334)">
			<path style="fill:#F1B654;" d="M12.1-1.3L12.1-1.3c7.7,0,14,6.3,14,14l0,0c0,7.7-6.3,14-14,14l0,0c-7.7,0-14-6.3-14-14l0,0
				C-1.9,4.9,4.3-1.3,12.1-1.3z"/>
			<text transform="matrix(1 0 0 1 0.989 12.666)" style="font-family:'Roboto-Medium'; font-size:9px;">YEAR</text>
			<text transform="matrix(1 0 0 1 9.21 22.666)" style="font-family:'Roboto-Bold'; font-size:10px;">4</text>
		</g>
	</g>
</g>
</svg>
