<svg xmlns="//www.w3.org/2000/svg" width="50.584" height="38" viewBox="0 0 50.584 38"><defs><style>.a{fill:#83cdb9;}.b{fill:#fff;}.c{fill:#028e4b;}</style></defs><g transform="translate(-2 -16.938)"><rect class="a" width="12" height="29" rx="1" transform="translate(38 25.938)"/><rect class="b" width="6" height="5" rx="1" transform="translate(42 29.938)"/><rect class="b" width="6" height="5" rx="1" transform="translate(42 36.938)"/><rect class="a" width="11" height="29" rx="1" transform="translate(5 25.938)"/><rect class="b" width="5" height="5" rx="1" transform="translate(7 29.938)"/><rect class="b" width="5" height="5" rx="1" transform="translate(7 36.938)"/><rect class="c" width="25" height="38" rx="1" transform="translate(15 16.938)"/><g transform="translate(17.175 20.372)"><rect class="b" width="5" height="5" rx="1" transform="translate(-0.175 -0.435)"/><rect class="b" width="5" height="5" rx="1" transform="translate(7.825 -0.435)"/><rect class="b" width="5" height="5" rx="1" transform="translate(14.825 -0.435)"/><rect class="b" width="5" height="5" rx="1" transform="translate(-0.175 6.565)"/><rect class="b" width="5" height="5" rx="1" transform="translate(7.825 6.565)"/><rect class="b" width="5" height="5" rx="1" transform="translate(14.825 6.565)"/><rect class="b" width="5" height="5" rx="1" transform="translate(-0.175 13.565)"/><rect class="b" width="5" height="5" rx="1" transform="translate(7.825 13.565)"/><rect class="b" width="5" height="5" rx="1" transform="translate(14.825 13.565)"/></g><path class="a" d="M37.332,46.686H23.843a.843.843,0,1,1,0-1.686H37.332a.843.843,0,0,1,0,1.686Z" transform="translate(-3.296 -4.394)"/><path class="b" d="M26,46H36.117V58.646H26Z" transform="translate(-3.767 -4.551)"/><path class="a" d="M35.96,45H25.843a.843.843,0,0,0-.843.843V58.489a.843.843,0,0,0,.843.843H35.96a.843.843,0,0,0,.843-.843V45.843A.843.843,0,0,0,35.96,45Zm-9.274,1.686h3.372v10.96H26.686Zm8.431,10.96H31.744V46.686h3.372Z" transform="translate(-3.61 -4.394)"/><path class="a" d="M51.741,61.686H2.843a.843.843,0,0,1,0-1.686h48.9a.843.843,0,0,1,0,1.686Z" transform="translate(0 -6.748)"/></g></svg>
