<svg xmlns="http://www.w3.org/2000/svg" width="183.48" height="129.28" viewBox="0 0 183.48 129.28">
  <g id="Group_1063" data-name="Group 1063" transform="translate(-171.333 -191.036)">
    <path id="Path_2377" data-name="Path 2377" d="M345.65,286.989q0-17.054.009-34.107c0-1.273.076-2.55.2-3.817a4.546,4.546,0,0,1,3.854-4.3c2.331-.225,4.043.957,4.736,3.427a14.5,14.5,0,0,1,.413,3.088c.5,8.905.958,17.814,1.5,26.718.067,1.114-.217,2.857,1.422,2.926,1.656.07,1.3-1.677,1.413-2.709.593-5.355,1.089-10.72,1.606-16.082.6-6.226,1.148-12.457,1.8-18.677a4.3,4.3,0,0,1,4.384-4.1c2.508.115,4.325,2.047,4.288,4.976-.05,3.878-.317,7.754-.543,11.628-.425,7.285-.893,14.566-1.327,21.851a20.222,20.222,0,0,0,0,2.915c.029.34.412.912.638.915a1.411,1.411,0,0,0,1.125-.583,16.719,16.719,0,0,0,1.341-3.728c1.495-8.311,2.885-16.641,4.356-24.957a19.93,19.93,0,0,1,1.181-4.5,4.7,4.7,0,0,1,5.479-2.676c1.938.507,2.837,1.947,2.783,4.607a28.152,28.152,0,0,1-.285,3.282q-1.992,14.453-4.016,28.9c-.166,1.19-.083,2.333,1.335,2.585,1.34.239,1.738-.882,2.085-1.88q2.531-7.289,5.03-14.587c.828-2.43,2.2-4.39,4.757-5.123.846-.242,2.268-.282,2.683.211a3.984,3.984,0,0,1,.693,3.031c-1.068,4.912-2.573,9.738-3.483,14.675-1.393,7.559-2.494,15.175-3.589,22.787-.876,6.09-1.987,12.1-4.652,17.7-3,6.3-7.657,10.627-14.62,12.274a37.663,37.663,0,0,1-17.715.352c-7.113-1.715-12.354-6.021-16.394-12.052q-6.182-9.229-12.76-18.191c-2.256-3.074-4.967-5.81-7.365-8.785-1.084-1.346-2.243-2.971-1.233-4.744.927-1.628,2.8-1.666,4.509-1.652a12.1,12.1,0,0,1,10.034,5.34,20.543,20.543,0,0,0,8.178,7.088c3.088,1.352,4.68.675,5.264-2.645.659-3.748.946-7.562,1.4-11.348Z" transform="translate(-43.844 -14.603)" fill="#83cdb9"/>
    <path id="Path_2378" data-name="Path 2378" d="M224.344,272.273c0,6.844-.082,13.689.049,20.529a25.924,25.924,0,0,0,1.047,6.488c.676,2.388,1.874,2.852,4.27,2.011a17.494,17.494,0,0,0,8.21-6.471c2.169-2.926,4.669-5.372,8.4-5.974a13.1,13.1,0,0,1,4.627.059c2.636.542,3.365,2.013,2.007,4.284a36.43,36.43,0,0,1-4.743,6.387c-6.272,6.606-11.277,14.111-16.046,21.81-4.33,6.992-10.376,11.793-18.635,12.965-8.469,1.2-16.826.8-24.059-4.667-3.83-2.9-6.017-6.969-7.676-11.369-2.626-6.964-3.172-14.312-4.161-21.6-.777-5.72-1.87-11.4-3.027-17.064-.9-4.413-2.16-8.752-3.159-13.146a4.254,4.254,0,0,1,.21-2.672,2.452,2.452,0,0,1,1.968-1.092,6.6,6.6,0,0,1,5.639,4.771c1.723,4.784,3.333,9.609,4.991,14.416.075.218.144.44.234.651.45,1.054.765,2.44,2.347,1.917,1.379-.456,1.3-1.693,1.13-2.916q-1.7-11.86-3.35-23.729c-.382-2.749-.826-5.5-1.024-8.263a3.925,3.925,0,0,1,2.678-4.378,4.481,4.481,0,0,1,5.154,1.931,13.393,13.393,0,0,1,1.477,4.2c1.686,9.1,3.272,18.217,4.926,27.322a7.017,7.017,0,0,0,.852,2.25c.22.375.8.54,1.213.8.249-.421.706-.839.712-1.262.024-1.793-.057-3.59-.154-5.382q-.453-8.327-.952-16.65c-.241-3.93-.564-7.855-.8-11.786a15.679,15.679,0,0,1,.127-3.286c.394-2.561,1.959-3.99,4.234-4.018,2.206-.026,3.888,1.5,4.2,4.041.5,4.023.911,8.057,1.3,12.092.756,7.842,1.442,15.691,2.25,23.527.073.708.822,1.345,1.257,2.014.484-.631,1.321-1.224,1.393-1.9.371-3.451.594-6.921.777-10.389.322-6.075.562-12.154.874-18.229a12.711,12.711,0,0,1,.463-2.56,4.17,4.17,0,0,1,3.69-3.185,3.931,3.931,0,0,1,4.355,2.722,15.27,15.27,0,0,1,.685,4.429C224.382,258.7,224.343,265.484,224.344,272.273Z" transform="translate(0 -14.601)" fill="#83cdb9"/>
    <path id="Path_2379" data-name="Path 2379" d="M241.256,213.449l5.082-4.266,22.75,27.094-5.078,4.27Z" transform="translate(-21.134 -5.485)" fill="#83cdb9"/>
    <path id="Path_2380" data-name="Path 2380" d="M304.687,226.247h-6.41V191.036h6.41Z" transform="translate(-38.368)" fill="#83cdb9"/>
    <path id="Path_2381" data-name="Path 2381" d="M318.121,230.164l-6.229-2.273,12.094-33.228,6.235,2.264C326.191,208,322.189,218.99,318.121,230.164Z" transform="translate(-42.483 -1.097)" fill="#83cdb9"/>
    <path id="Path_2382" data-name="Path 2382" d="M285.914,228.334l-6.237,2.264c-4.025-11.05-8.019-22.014-12.093-33.2l6.22-2.307Z" transform="translate(-29.091 -1.225)" fill="#83cdb9"/>
    <path id="Path_2383" data-name="Path 2383" d="M329.521,239.974l-5.081-4.265,22.739-27.092,5.091,4.251Z" transform="translate(-46.276 -5.314)" fill="#83cdb9"/>
  </g>
</svg>
