<?xml version="1.0" encoding="utf-8"?>
<!-- Generator: Adobe Illustrator 24.3.0, SVG Export Plug-In . SVG Version: 6.00 Build 0)  -->
<svg version="1.1" id="Layer_1" xmlns="http://www.w3.org/2000/svg" xmlns:xlink="http://www.w3.org/1999/xlink" x="0px" y="0px"
	 viewBox="0 0 130.1 91" style="enable-background:new 0 0 130.1 91;" xml:space="preserve">
<g transform="translate(-43.97 -230.488)">
	<g transform="matrix(1, 0, 0, 1, 43.97, 230.49)">
		<path style="fill:#FBD269;" d="M64,77.7L35.9,49.7c-1.7-1.7-1.7-4.4,0-6.1c0,0,0,0,0,0l6.1-6.1c1.7-1.7,4.4-1.7,6.1,0c0,0,0,0,0,0
			l18.9,18.9l40.5-40.5c1.7-1.7,4.4-1.7,6.1,0c0,0,0,0,0,0l6.1,6.1c1.7,1.7,1.7,4.4,0,6.1c0,0,0,0,0,0L70.1,77.7
			C68.4,79.4,65.7,79.4,64,77.7C64,77.7,64,77.7,64,77.7z"/>
	</g>
	<path style="fill:none;stroke:#83CDB9;stroke-width:2;stroke-linecap:round;" d="M64.2,279.5L46,281.3"/>
	<path style="fill:none;stroke:#83CDB9;stroke-width:4;stroke-linecap:round;" d="M74.6,261.2l-16.7-27"/>
	<path style="fill:none;stroke:#83CDB9;stroke-width:3;stroke-linecap:round;" d="M66.8,267.7L46,258"/>
	<path style="fill:none;stroke:#83CDB9;stroke-width:2;stroke-linecap:round;" d="M102,258.6l9.9-11.9"/>
	<path style="fill:none;stroke:#83CDB9;stroke-width:3;stroke-linecap:round;" d="M89,258.6l0.6-26.6"/>
</g>
</svg>
