<?xml version="1.0" encoding="utf-8"?>
<!-- Generator: Adobe Illustrator 24.3.0, SVG Export Plug-In . SVG Version: 6.00 Build 0)  -->
<svg version="1.1" id="Layer_1" xmlns="//www.w3.org/2000/svg" xmlns:xlink="//www.w3.org/1999/xlink" x="0px" y="0px"
	 viewBox="0 0 43.7 51.7" style="enable-background:new 0 0 43.7 51.7;" xml:space="preserve">
<g id="medal" transform="translate(-39.592)">
	<path id="Path_2439" style="fill:#83CDB9;" d="M50.9,22.4L39.6,43.7l10.3-0.9l5,9l11.3-21.3L50.9,22.4z"/>
	<g id="Group_1151" transform="translate(56.802 22.37)">
		<path id="Path_2441" style="fill:#83CDB9;" d="M15.2,0l11.3,21.3l-10.3-0.9l-5,9L0,8.1L15.2,0z"/>
	</g>
	<circle id="Ellipse_120" style="fill:#E17A17;" cx="61.5" cy="18.9" r="18.9"/>
	<path id="Path_2444" style="fill:#FFEDB7;" d="M61.5,32.4c-7.4,0-13.5-6-13.5-13.5c0-7.4,6-13.5,13.5-13.5c7.4,0,13.5,6,13.5,13.5
		c0,0,0,0,0,0C74.9,26.3,68.9,32.3,61.5,32.4z"/>
	<path id="Path_2447" d="M61.2,10c-0.4,1.1-1.2,2.1-2.1,2.8c-0.5,0.4-1,0.7-1.5,1v3.1c1.1-0.5,2.1-1.1,3-1.9v12.8H64V10H61.2z"/>
</g>
</svg>
