<svg xmlns="http://www.w3.org/2000/svg" width="282.173" height="229.144" viewBox="0 0 282.173 229.144"><defs><style>.a{fill:#fbd269;}</style></defs><g transform="translate(-235.414 -124.928)"><path class="a" d="M376.31,354.062q-55.738,0-111.478.01c-12.295.01-21.344-5.473-26.6-16.439a30.061,30.061,0,0,1-2.683-12.526q-.255-85.608-.08-171.216c.026-16.892,12.255-28.932,29.115-28.939q111.854-.048,223.707,0c17.012.006,29.213,12.042,29.236,29.073q.116,85.483,0,170.967c-.017,14.779-9.55,26.178-23.775,28.738a36.8,36.8,0,0,1-6.472.322Q431.8,354.077,376.31,354.062ZM253.365,191.548c-.046.906-.109,1.566-.109,2.226q-.007,65.236.011,130.474c.006,7.93,4.35,12.166,12.256,12.186,6.416.016,12.831,0,19.247,0q101.1,0,202.209-.074a17.631,17.631,0,0,0,7.616-1.773c4.631-2.321,5.377-6.944,5.383-11.542q.075-64.362.03-128.724v-2.776Zm195.386-26.043q10.984,0,21.971,0a6.987,6.987,0,0,0,6.717-3.9c2.531-4.939-.422-10.617-5.951-10.692-15.141-.205-30.287-.075-45.43-.026a6.556,6.556,0,0,0-2.852.731,7.374,7.374,0,0,0-3.712,8.236,7.14,7.14,0,0,0,7.036,5.626C433.937,165.544,441.344,165.5,448.751,165.505ZM277.5,147.827a10.045,10.045,0,1,0,10.156,9.756A9.844,9.844,0,0,0,277.5,147.827Zm49.8,10.118a9.921,9.921,0,0,0,9.989,9.98,10.205,10.205,0,0,0,10.128-10.2,10.059,10.059,0,0,0-20.117.218Zm-19.514-10.118a10.06,10.06,0,0,0-10.483,9.753,9.924,9.924,0,0,0,9.862,10.341,10.145,10.145,0,0,0,10.246-9.79A9.892,9.892,0,0,0,307.789,147.827Z"/><path class="a" d="M374.851,273.011c16.9.508,29.678,5.384,39.222,17.322,2.369,2.963,3.7,6.16,2.64,9.928a8.149,8.149,0,0,1-6.474,6.227c-3.792.772-7.4.129-9.537-3.259-7.386-11.734-24.407-14.251-36.011-9.414a25.251,25.251,0,0,0-11.123,8.531c-3.218,4.45-8.888,5.777-12.918,3.08-4.381-2.932-5.474-8.7-2.307-13.435,5.917-8.84,14.365-14.238,24.487-16.929A109.932,109.932,0,0,1,374.851,273.011Z"/><path class="a" d="M326.371,237.41a16.309,16.309,0,1,1,16.269,16.336A16.326,16.326,0,0,1,326.371,237.41Z"/><path class="a" d="M426.627,237.449a16.308,16.308,0,1,1-32.616-.066,16.308,16.308,0,1,1,32.616.066Z"/></g></svg>