<svg xmlns="http://www.w3.org/2000/svg" xmlns:xlink="http://www.w3.org/1999/xlink" width="1263" height="818.37" viewBox="0 0 1263 818.37">
  <defs>
    <filter id="Rectangle" x="445" y="0" width="202" height="122" filterUnits="userSpaceOnUse">
      <feOffset dy="3" input="SourceAlpha"/>
      <feGaussianBlur stdDeviation="3" result="blur"/>
      <feFlood flood-opacity="0.161"/>
      <feComposite operator="in" in2="blur"/>
      <feComposite in="SourceGraphic"/>
    </filter>
    <filter id="Rectangle-2" x="198.455" y="72.9" width="1064.545" height="745.47" filterUnits="userSpaceOnUse">
      <feOffset dy="-4" input="SourceAlpha"/>
      <feGaussianBlur stdDeviation="10" result="blur-2"/>
      <feFlood flood-opacity="0.161"/>
      <feComposite operator="in" in2="blur-2"/>
      <feComposite in="SourceGraphic"/>
    </filter>
    <filter id="Path_82" x="220" y="456" width="1022" height="58.043" filterUnits="userSpaceOnUse">
      <feOffset dy="2" input="SourceAlpha"/>
      <feGaussianBlur stdDeviation="3" result="blur-3"/>
      <feFlood flood-opacity="0.161"/>
      <feComposite operator="in" in2="blur-3"/>
      <feComposite in="SourceGraphic"/>
    </filter>
    <filter id="Rectangle_1358" x="0" y="115" width="699" height="355" filterUnits="userSpaceOnUse">
      <feOffset dy="3" input="SourceAlpha"/>
      <feGaussianBlur stdDeviation="3" result="blur-4"/>
      <feFlood flood-opacity="0.161"/>
      <feComposite operator="in" in2="blur-4"/>
      <feComposite in="SourceGraphic"/>
    </filter>
  </defs>
  <g id="academic-pathway" transform="translate(1436 -1537)">
    <g id="Explore_Occupations_-_Green_-_Desktop" data-name="Explore Occupations - Green - Desktop" transform="translate(-982 1543)">
      <g id="Build_Your_Future_Tab" data-name="Build Your Future Tab">
        <g transform="matrix(1, 0, 0, 1, -454, -6)" filter="url(#Rectangle)">
          <path id="Rectangle-3" data-name="Rectangle" d="M5,0H179a5,5,0,0,1,5,5v99a0,0,0,0,1,0,0H0a0,0,0,0,1,0,0V5A5,5,0,0,1,5,0Z" transform="translate(454 6)" fill="#90baa6"/>
        </g>
      </g>
      <g id="Group_396" data-name="Group 396" transform="translate(-181.279 -79.982)">
        <path id="Path_1" data-name="Path 1" d="M259.718,126.327c0-1.567-.008-3.047,0-4.526a4.573,4.573,0,0,1,4.659-4.8q7.088-.028,14.177,0a4.484,4.484,0,0,1,4.531,3.495,7.01,7.01,0,0,1,.13,1.58c.017,1.4.006,2.8.006,4.26h.672q5.352,0,10.7,0a8.962,8.962,0,0,1,8.93,7.8,11.405,11.405,0,0,1,.075,1.534q.007,14.975.012,29.949a8.936,8.936,0,0,1-3.7,7.67,8.162,8.162,0,0,1-4.812,1.666c-2.467.028-4.935.02-7.4.02q-19.5,0-39,.011a9.029,9.029,0,0,1-5.835-1.867,8.42,8.42,0,0,1-3.423-6.711c-.056-6.623-.028-13.247-.029-19.871,0-3.929-.026-7.858.025-11.786a8.865,8.865,0,0,1,7.365-8.3,13.163,13.163,0,0,1,1.754-.118c3.492-.011,6.984-.005,10.476-.005Zm18.9,22.819c0,.567.014,1.095,0,1.622a3.587,3.587,0,0,1-3.61,3.565q-3.614.041-7.229,0a3.532,3.532,0,0,1-3.532-3.14c-.089-.669-.09-1.349-.133-2.054a104.283,104.283,0,0,1-21.238-3.439c-.012.172-.029.3-.029.431q0,9.962.008,19.925a5.075,5.075,0,0,0,.194,1.342,5.449,5.449,0,0,0,5.606,4.084q22.8.008,45.6,0a6.836,6.836,0,0,0,1.525-.134,5.4,5.4,0,0,0,4.338-5.45q.017-9.877,0-19.754c0-.132-.012-.264-.021-.451A105.324,105.324,0,0,1,278.621,149.147Zm.2-3.488c.262,0,.45.018.634,0,2.974-.326,5.954-.613,8.921-1a74.1,74.1,0,0,0,11.37-2.431.475.475,0,0,0,.407-.551c-.016-2.239.051-4.481-.049-6.716a5.756,5.756,0,0,0-.715-2.469,5.19,5.19,0,0,0-4.788-2.744q-23.083-.019-46.167-.007c-.133,0-.266,0-.4.007a5.278,5.278,0,0,0-5.056,4.746c-.108,2.5-.021,5.007-.017,7.512,0,.033.033.067.06.117a95.959,95.959,0,0,0,21.239,3.573c0-.612-.016-1.141,0-1.67a3.461,3.461,0,0,1,3.2-3.338c2.6-.085,5.2-.116,7.794-.036a3.487,3.487,0,0,1,3.555,3.364C278.863,144.542,278.826,145.075,278.826,145.658Zm-15.64-19.369h16.577c0-1.477,0-2.916,0-4.355,0-1.181-.337-1.516-1.525-1.516q-3.843,0-7.686,0c-1.993,0-3.986,0-5.978,0-.911,0-1.361.347-1.378,1.149C263.162,123.123,263.186,124.678,263.186,126.29ZM267.8,144v6.722a1.718,1.718,0,0,0,.275.043c2.258.048,4.516.085,6.774.145.446.012.483-.21.481-.562-.01-1.9,0-3.8-.007-5.694a4.368,4.368,0,0,0-.046-.446Z" fill="#006233"/>
      </g>
      <text id="Occupations" transform="translate(90.5 25.77)" fill="#006233" font-size="20" font-family="Roboto-Bold, Roboto" font-weight="700"><tspan x="-56.348" y="0">Occupations</tspan></text>
    </g>
    <g transform="matrix(1, 0, 0, 1, -1436, 1537)" filter="url(#Rectangle-2)">
      <path id="Rectangle-4" data-name="Rectangle" d="M184.736,100.9H1004V786.37H0L-.545,100.9Z" transform="translate(229 6)" fill="#fff"/>
    </g>
    <text id="CarrerPathDECIDE_is" data-name="CarrerPathDECIDE is" transform="translate(-724 1698)" fill="#006233" font-size="20" font-family="Roboto-Bold, Roboto" font-weight="700"><tspan x="0" y="21">B.S. Community Health - Clinical Science Concentration</tspan></text>
    <text id="Total_" data-name="Total = " transform="translate(-817 2054)" font-size="14" font-family="Roboto-Bold, Roboto" font-weight="700"><tspan x="33.539" y="15">NOVA</tspan><tspan x="21.159" y="47">MASON</tspan><tspan font-family="Roboto-Medium, Roboto" font-weight="500"><tspan x="29.041" y="79">TOTAL</tspan></tspan></text>
    <g id="Group_1156" data-name="Group 1156" transform="translate(-1345 1217)">
      <g transform="matrix(1, 0, 0, 1, -91, 320)" filter="url(#Path_82)">
        <path id="Path_82-2" data-name="Path 82" d="M-318.753,0h1004V31H209.337l-21.19,9.043L167.633,31H-318.753Z" transform="translate(547.75 463)" fill="#fff"/>
      </g>
      <text id="Course_Work" data-name="Course Work" transform="translate(514 804)" font-size="20" font-family="Roboto-Bold, Roboto" font-weight="700"><tspan x="0" y="0" xml:space="preserve">COURSE WORK   </tspan><tspan y="0" font-family="Roboto-Regular, Roboto" font-weight="400">At-A-Glance</tspan></text>
    </g>
    <text id="Total_2" data-name="Total = " transform="translate(-734 2054)" font-size="14" font-family="Roboto-Medium, Roboto" font-weight="500"><tspan x="0" y="15">18 classes (56 credits)</tspan><tspan x="0" y="47">20 classes (66 credits)</tspan><tspan x="0" y="79">38 classes (122 credits)</tspan></text>
    <line id="Line_174" data-name="Line 174" x2="253" transform="translate(-817.5 2111.5)" fill="none" stroke="#707070" stroke-width="0.5"/>
    <text id="Total_3" data-name="Total = " transform="translate(-808 2100)" font-size="14" font-family="AvenirNext-Bold, Avenir Next" font-weight="700"><tspan x="-9.324" y="0">+</tspan></text>
    <g id="Degree_Explorer_-_White_-_Desktop" data-name="Degree Explorer - White - Desktop" transform="translate(-1176 1543)">
      <g id="Degree_Explorer_Tab" data-name="Degree Explorer Tab">
        <path id="Rectangle-5" data-name="Rectangle" d="M5,0H179a5,5,0,0,1,5,5v99.5a0,0,0,0,1,0,0H0a0,0,0,0,1,0,0V5A5,5,0,0,1,5,0Z" fill="#fff"/>
      </g>
      <text id="Degree_Explorer" data-name="Degree Explorer" transform="translate(93.463 26.774)" fill="#006233" font-size="20" font-family="Roboto-Bold, Roboto" font-weight="700"><tspan x="-71.909" y="0">Degree Explorer</tspan></text>
      <g id="Grad_Cap-2" data-name="Grad Cap" transform="translate(47.12 34.996)">
        <path id="Path_2" data-name="Path 2" d="M280.788,123.755c.439.11.85.176,1.237.314q20.688,7.388,41.371,14.792c2.077.744,2.747,2.876,1.328,4.308a3.832,3.832,0,0,1-1.426.793q-15.919,5.68-31.849,11.328c-3.156,1.121-6.319,2.226-9.468,3.368a3.141,3.141,0,0,1-2.253,0q-20.737-7.376-41.493-14.7c-2.04-.718-2.52-2.492-1.821-3.742a3.194,3.194,0,0,1,1.9-1.383l19.314-6.916q10.908-3.907,21.817-7.81C279.879,123.953,280.342,123.871,280.788,123.755Z" transform="translate(-236.113 -123.755)" fill="#006233"/>
        <path id="Path_3" data-name="Path 3" d="M340.357,214.259c.016.337.035.556.035.775q0,9.777.012,19.553a1.242,1.242,0,0,1-.6,1.157,50.478,50.478,0,0,1-53.424,2.925c-1.7-.923-3.292-2.048-4.912-3.115a1.013,1.013,0,0,1-.389-.728c-.021-6.794-.017-13.588-.017-20.51.34.113.614.2.884.293,8.5,3.032,17,6.048,25.488,9.112a9.026,9.026,0,0,0,6.4,0c8.51-3.079,17.039-6.106,25.562-9.151C339.676,214.467,339.964,214.385,340.357,214.259Z" transform="translate(-266.096 -184.124)" fill="#006233"/>
        <path id="Path_4" data-name="Path 4" d="M477.034,203.146c0,3.234.012,6.367-.009,9.5a2.208,2.208,0,0,0,.767,1.927,4.187,4.187,0,0,1,.529,5.268,4.363,4.363,0,0,1-4.994,1.854,4.3,4.3,0,0,1-2.978-4.32,4.856,4.856,0,0,1,1.134-2.792,2.252,2.252,0,0,0,.473-1.241c.043-2.552.039-5.1.008-7.657a.872.872,0,0,1,.7-1.01C474.107,204.21,475.527,203.678,477.034,203.146Z" transform="translate(-392.353 -176.712)" fill="#006233"/>
      </g>
    </g>
    <g id="View_Sample_Course_Outline_Button" data-name="View Sample Course Outline Button" transform="translate(-838 2153)">
      <g id="Group_401" data-name="Group 401" transform="translate(-44.018 6.127)">
        <rect id="Rectangle_1271" data-name="Rectangle 1271" width="267" height="34" rx="17" transform="translate(44.018 -6.127)" fill="#e17a17"/>
        <text id="Customized_for_Senio" data-name="Customized for Senio" transform="translate(187.017 15.873)" fill="#fff" font-size="12" font-family="Roboto-Bold, Roboto" font-weight="700" letter-spacing="0.01em"><tspan x="-91.075" y="0">VIEW SAMPLE COURSE OUTLINE</tspan></text>
      </g>
      <g id="Group_404" data-name="Group 404" transform="translate(-203.977 -111.755)">
        <path id="Path_2-2" data-name="Path 2" d="M243.771,123.755c.075.019.146.03.212.054q3.546,1.267,7.092,2.536a.441.441,0,0,1,.228.738.657.657,0,0,1-.245.136q-2.729.974-5.46,1.942c-.541.192-1.083.382-1.623.577a.538.538,0,0,1-.386,0q-3.555-1.264-7.113-2.52a.45.45,0,0,1-.312-.641.547.547,0,0,1,.325-.237l3.311-1.186q1.87-.67,3.74-1.339C243.615,123.789,243.695,123.775,243.771,123.755Z" transform="translate(0 0)" fill="#fff"/>
        <path id="Path_3-2" data-name="Path 3" d="M291.227,214.259c0,.058.006.1.006.133q0,1.676,0,3.352a.213.213,0,0,1-.1.2,8.653,8.653,0,0,1-9.158.5c-.291-.158-.564-.351-.842-.534a.174.174,0,0,1-.067-.125c0-1.165,0-2.329,0-3.516.058.019.105.034.152.05,1.457.52,2.914,1.037,4.369,1.562a1.547,1.547,0,0,0,1.1,0c1.459-.528,2.921-1.047,4.382-1.569C291.111,214.295,291.16,214.281,291.227,214.259Z" transform="translate(-42.384 -85.338)" fill="#fff"/>
        <path id="Path_4-2" data-name="Path 4" d="M471.49,203.146c0,.554,0,1.091,0,1.628a.379.379,0,0,0,.131.33.718.718,0,0,1,.091.9.748.748,0,0,1-.856.318.737.737,0,0,1-.511-.741.833.833,0,0,1,.194-.479.386.386,0,0,0,.081-.213c.007-.437.007-.875,0-1.313a.149.149,0,0,1,.12-.173C470.989,203.328,471.232,203.237,471.49,203.146Z" transform="translate(-220.861 -74.86)" fill="#fff"/>
      </g>
    </g>
    <g id="View_Course_PDF_Button" data-name="View Course PDF Button" transform="translate(-801 2217)">
      <g id="Group_401-2" data-name="Group 401" transform="translate(-45.018 6.127)">
        <rect id="Rectangle_1271-2" data-name="Rectangle 1271" width="193" height="34" rx="17" transform="translate(45.018 -6.127)" fill="#e17a17"/>
        <text id="Customized_for_Senio-2" data-name="Customized for Senio" transform="translate(150.017 15.873)" fill="#fff" font-size="12" font-family="Roboto-Bold, Roboto" font-weight="700" letter-spacing="0.01em"><tspan x="-52.089" y="0">VIEW COURSE PDF</tspan></text>
      </g>
      <path id="Icon_awesome-file-pdf" data-name="Icon awesome-file-pdf" d="M4.563,6.425a2.42,2.42,0,0,1-.05-1.177C4.724,5.248,4.7,6.174,4.563,6.425ZM4.52,7.609a11.575,11.575,0,0,1-.712,1.573,9.237,9.237,0,0,1,1.578-.549A3.25,3.25,0,0,1,4.52,7.609ZM2.16,10.739c0,.02.331-.135.875-1.008A3.467,3.467,0,0,0,2.16,10.739ZM6.221,4.014H9.633v8.228a.6.6,0,0,1-.6.6H.6a.6.6,0,0,1-.6-.6V.6A.6.6,0,0,1,.6,0H5.619V3.412A.6.6,0,0,0,6.221,4.014Zm-.2,4.31a2.518,2.518,0,0,1-1.071-1.35A3.606,3.606,0,0,0,5.1,5.363a.628.628,0,0,0-1.2-.171,4.171,4.171,0,0,0,.2,1.932A23.556,23.556,0,0,1,3.086,9.277s0,0-.005,0c-.68.349-1.846,1.116-1.367,1.706a.78.78,0,0,0,.539.251c.449,0,.9-.452,1.533-1.55A14.3,14.3,0,0,1,5.767,9.1a3.8,3.8,0,0,0,1.605.489A.649.649,0,0,0,7.867,8.5c-.349-.341-1.362-.243-1.846-.181ZM9.457,2.634,7,.176A.6.6,0,0,0,6.573,0H6.422V3.211H9.633V3.058A.6.6,0,0,0,9.457,2.634ZM7.6,9.038c.1-.068-.063-.3-1.074-.226C7.456,9.209,7.6,9.038,7.6,9.038Z" transform="translate(37 11)" fill="#fff"/>
    </g>
    <text id="Total_4" data-name="Total = " transform="translate(-714 2208)" font-size="14" font-family="Roboto-Medium, Roboto" font-weight="500"><tspan x="0" y="0">OR</tspan></text>
    <text id="CarrerPathDECIDE_is-2" data-name="CarrerPathDECIDE is" transform="translate(-724 1738)" font-size="20" font-family="Roboto-Regular, Roboto"><tspan x="0" y="21">Community health is the applied science of protecting </tspan><tspan x="0" y="52">and improving the health and well-being of individuals, </tspan><tspan x="0" y="83">families, populations, and communities using evidence-</tspan><tspan x="0" y="114">based health promotion and disease prevention </tspan><tspan x="0" y="145">programs and policies. The BS in Communi…</tspan></text>
    <text id="CarrerPathDECIDE_is-3" data-name="CarrerPathDECIDE is" transform="translate(-724 1906)" fill="#e17a17" font-size="18" font-family="Roboto-Medium, Roboto" font-weight="500"><tspan x="0" y="19">Read more</tspan></text>
    <rect id="Rectangle_1362" data-name="Rectangle 1362" width="1004" height="41" transform="translate(-1207 1959)" fill="#fff"/>
    <g id="Group_1158" data-name="Group 1158" transform="translate(-102.851 -38)">
      <g transform="matrix(1, 0, 0, 1, -1333.15, 1575)" filter="url(#Rectangle_1358)">
        <rect id="Rectangle_1358-2" data-name="Rectangle 1358" width="681" height="337" transform="translate(9 121)" fill="#fff"/>
      </g>
      <g id="Group_1157" data-name="Group 1157" transform="translate(-1283.361 1752.541)">
        <rect id="Rectangle-6" data-name="Rectangle" width="598.117" height="56.541" rx="3" transform="translate(0 81.278)" fill="none" stroke="#006231" stroke-miterlimit="10" stroke-width="1"/>
        <rect id="Rectangle-7" data-name="Rectangle" width="598.117" height="56.541" rx="3" transform="translate(0 162.556)" fill="none" stroke="#006231" stroke-miterlimit="10" stroke-width="1"/>
        <path id="Polygon_1" data-name="Polygon 1" d="M8.835,0l8.835,10.6H0Z" transform="translate(574.836 34.749) rotate(180)" fill="#006231"/>
        <text id="Enter_a_Keyword" data-name="Enter a Keyword" transform="translate(12.368 98.358)" font-size="16" font-family="Roboto-Regular, Roboto"><tspan x="0" y="17">B.S. Community Health - Clinical Science Concentration</tspan></text>
        <text id="Enter_a_Keyword-2" data-name="Enter a Keyword" transform="translate(12.368 17.08)" font-size="16" font-family="Roboto-Regular, Roboto"><tspan x="0" y="17">Health Services and Nursing</tspan></text>
        <text id="Enter_a_Keyword-3" data-name="Enter a Keyword" transform="translate(12.368 179.636)" font-size="16" font-family="Roboto-Regular, Roboto"><tspan x="0" y="17">A.S. General Studies Health Sciences Specialization</tspan></text>
        <g id="Group_814" data-name="Group 814" transform="translate(0 0)">
          <rect id="Rectangle-8" data-name="Rectangle" width="598.117" height="56.541" rx="3" fill="none" stroke="#006231" stroke-miterlimit="10" stroke-width="1"/>
        </g>
        <path id="Polygon_11" data-name="Polygon 11" d="M8.835,0l8.835,10.6H0Z" transform="translate(574.836 118.383) rotate(180)" fill="#006231"/>
        <path id="Polygon_14" data-name="Polygon 14" d="M8.835,0l8.835,10.6H0Z" transform="translate(574.836 199.661) rotate(180)" fill="#006231"/>
      </g>
      <rect id="Rectangle_1361" data-name="Rectangle 1361" width="172" height="30" transform="translate(-1265.149 1738)" fill="#fff"/>
      <rect id="Rectangle_1359" data-name="Rectangle 1359" width="172" height="29" transform="translate(-1265.149 1821)" fill="#fff"/>
      <rect id="Rectangle_1360" data-name="Rectangle 1360" width="172" height="29" transform="translate(-1265.149 1900)" fill="#fff"/>
      <text id="Enter_a_Keyword-4" data-name="Enter a Keyword" transform="translate(-1256.857 1744.885)" fill="#848484" font-size="12" font-family="Roboto-Regular, Roboto"><tspan x="0" y="13">SELECT an Area of Study</tspan></text>
      <text id="Enter_a_Keyword-5" data-name="Enter a Keyword" transform="translate(-1256.857 1827.341)" fill="#848484" font-size="12" font-family="Roboto-Regular, Roboto"><tspan x="0" y="13">SELECT an Area of Study</tspan></text>
      <text id="Enter_a_Keyword-6" data-name="Enter a Keyword" transform="translate(-1256.857 1906.263)" fill="#848484" font-size="12" font-family="Roboto-Regular, Roboto"><tspan x="0" y="13">SELECT an Area of Study</tspan></text>
    </g>
  </g>
</svg>
