<svg id="coaching" xmlns="http://www.w3.org/2000/svg" xmlns:xlink="http://www.w3.org/1999/xlink" width="303.652" height="306.09" viewBox="0 0 303.652 306.09">
  <defs>
    <clipPath id="clip-path">
      <rect id="Rectangle_1329" data-name="Rectangle 1329" width="303.652" height="306.09" fill="none"/>
    </clipPath>
    <clipPath id="clip-path-3">
      <rect id="Rectangle_1300" data-name="Rectangle 1300" width="259.202" height="17.383" fill="none"/>
    </clipPath>
    <clipPath id="clip-path-4">
      <rect id="Rectangle_1301" data-name="Rectangle 1301" width="50.994" height="9.895" fill="none"/>
    </clipPath>
    <clipPath id="clip-path-5">
      <rect id="Rectangle_1312" data-name="Rectangle 1312" width="40.772" height="32.15" fill="none"/>
    </clipPath>
    <clipPath id="clip-path-6">
      <rect id="Rectangle_1313" data-name="Rectangle 1313" width="105.503" height="71.457" fill="none"/>
    </clipPath>
    <clipPath id="clip-path-7">
      <rect id="Rectangle_1314" data-name="Rectangle 1314" width="95.933" height="79.651" fill="none"/>
    </clipPath>
  </defs>
  <g id="Group_1163" data-name="Group 1163" clip-path="url(#clip-path)">
    <g id="Group_1162" data-name="Group 1162">
      <g id="Group_1161" data-name="Group 1161" clip-path="url(#clip-path)">
        <g id="Group_1148" data-name="Group 1148" transform="translate(44.45 288.707)" opacity="0.11">
          <g id="Group_1147" data-name="Group 1147">
            <g id="Group_1146" data-name="Group 1146" clip-path="url(#clip-path-3)">
              <path id="Path_2402" data-name="Path 2402" d="M298.756,265.6c0,4.8-58.024,8.691-129.6,8.691s-129.6-3.892-129.6-8.691,58.024-8.691,129.6-8.691,129.6,3.892,129.6,8.691" transform="translate(-39.554 -256.906)"/>
            </g>
          </g>
        </g>
        <g id="Group_1151" data-name="Group 1151" transform="translate(0.241 272.629)" opacity="0.11">
          <g id="Group_1150" data-name="Group 1150">
            <g id="Group_1149" data-name="Group 1149" clip-path="url(#clip-path-4)">
              <path id="Path_2403" data-name="Path 2403" d="M51.208,247.546c0,2.733-11.415,4.947-25.5,4.947s-25.5-2.214-25.5-4.947,11.415-4.947,25.5-4.947,25.5,2.214,25.5,4.947" transform="translate(-0.214 -242.599)"/>
            </g>
          </g>
        </g>
        <path id="Path_2404" data-name="Path 2404" d="M162.5,36.328H148.766L137.706,48.871l5.44-12.543h-9.978a1.466,1.466,0,0,1-1.467-1.467v-18.9a1.466,1.466,0,0,1,1.467-1.467H162.5a1.466,1.466,0,0,1,1.467,1.467v18.9a1.466,1.466,0,0,1-1.467,1.467" transform="translate(16.303 1.795)" fill="#e17a17"/>
        <rect id="Rectangle_1302" data-name="Rectangle 1302" width="3.564" height="3.346" transform="translate(156.759 29.304)" fill="#fff"/>
        <rect id="Rectangle_1303" data-name="Rectangle 1303" width="3.564" height="3.346" transform="translate(162.357 29.304)" fill="#fff"/>
        <rect id="Rectangle_1304" data-name="Rectangle 1304" width="3.562" height="3.346" transform="translate(167.956 29.304)" fill="#fff"/>
        <path id="Path_2405" data-name="Path 2405" d="M238.946,153.621H88.593a6.285,6.285,0,0,1-6.285-6.285V58.61a6.285,6.285,0,0,1,6.285-6.285H238.946a6.285,6.285,0,0,1,6.285,6.285v88.725a6.285,6.285,0,0,1-6.285,6.285" transform="translate(10.189 6.477)" fill="#e17a17"/>
        <rect id="Rectangle_1305" data-name="Rectangle 1305" width="144.015" height="79.612" transform="translate(101.791 65.703)" fill="#f9f9f9"/>
        <rect id="Rectangle_1306" data-name="Rectangle 1306" width="46.569" height="58.983" transform="translate(189.181 78.056)" fill="#fde9b7"/>
        <rect id="Rectangle_1307" data-name="Rectangle 1307" width="37.795" height="5.877" transform="translate(193.567 83.613)" fill="#a6dbcd"/>
        <rect id="Rectangle_1308" data-name="Rectangle 1308" width="37.795" height="5.877" transform="translate(193.567 94.506)" fill="#428b68"/>
        <rect id="Rectangle_1309" data-name="Rectangle 1309" width="37.795" height="5.879" transform="translate(193.567 105.396)" fill="#fff"/>
        <rect id="Rectangle_1310" data-name="Rectangle 1310" width="37.795" height="5.879" transform="translate(193.567 116.288)" fill="#fff"/>
        <rect id="Rectangle_1311" data-name="Rectangle 1311" width="37.795" height="5.879" transform="translate(193.567 127.181)" fill="#fff"/>
        <path id="Path_2406" data-name="Path 2406" d="M124.045,76.067s7.672.045,8.742,5.047.119,10.622,1.427,14.142,5.383,13.339-3.36,13.894-10.169-1.945-12.31-2.037-5.353,5.071-11.686,2.118-3.568-9.59-.833-10.394,1.669-5.527,1.011-7.1c-1.369-3.274-2.379-13.339,6.957-16.3,7.547-2.4,10.051.634,10.051.634" transform="translate(12.75 9.223)"/>
        <path id="Path_2407" data-name="Path 2407" d="M115.593,92.065c-.569,6.735-1.023,14.713-3.794,20.394.31,2.73,1.819,7.918,8.846,7.736,5.955-.155,7.717-3.882,8.2-6.648A40.2,40.2,0,0,1,123.988,96.2c-2.723-.008-6.5-2.772-8.395-4.134" transform="translate(13.839 11.396)" fill="#e17a17"/>
        <path id="Path_2408" data-name="Path 2408" d="M117.575,78.139s9.634.463,11.626,2.454,1.9,6.037,2.454,11.965-3.087,12.475-6.3,13.339-12.042-4.663-13.278-13.879,1.788-14.192,5.5-13.88" transform="translate(13.839 9.671)" fill="#edb176"/>
        <path id="Path_2409" data-name="Path 2409" d="M181.347,104.35a88.869,88.869,0,0,0,6.544-8.113c1.8-2.838,8.534-12.2,9.935-10.729s-4.406,9.208-4.406,9.208,5.617-10.043,7.582-8.941c1.942,1.089-5.21,9.92-5.21,9.92s6.092-8.5,7.138-7.308-.2,3.054-5.215,9.255c0,0,4.3-5.342,5.342-3.661s-3.866,6.393-5.585,7.434c-1.742,1.054-10.172,5.536-12.446,7.736,0,0-4.042-2.083-3.679-4.8" transform="translate(22.445 10.566)" fill="#edb176"/>
        <path id="Path_2410" data-name="Path 2410" d="M196.328,94.8c-.492-1.278-2.488-1.172-3.686-1.063a5.255,5.255,0,0,0-3.768,1.8c-.5.616-.9,1.237-1.459,1.818-1.07,1.117-.352,2.064-.017,3.277.1.353,2.44.707,4.693-.2a8.756,8.756,0,0,0,3.638-3.12,4.6,4.6,0,0,0,.6-2.518" transform="translate(23.129 11.596)" fill="#e17a17"/>
        <path id="Path_2411" data-name="Path 2411" d="M188.478,96.306s5.36-3.635,7.024-2.526.185,2.526-5.484,4.867c0,0-1.848,2.773-3.142,3.081a3.922,3.922,0,0,1,1.6-5.422" transform="translate(23.069 11.583)" fill="#edb176"/>
        <path id="Path_2412" data-name="Path 2412" d="M122.341,76.271s2.645,11.523-5.567,12.97a7.687,7.687,0,0,0-.988,6.51c1.172,3.581,3.8,11.223-.942,12.992s-8.323-1.115-6.408-8.567,1.915-11.527,3.088-16.961,3.416-9.441,10.816-6.944" transform="translate(13.358 9.347)"/>
        <path id="Path_2413" data-name="Path 2413" d="M116.564,75.991s.6,10.407,9.6,10.838,9.087-5.944,7.968-7.493-5.211-7.636-17.572-3.344" transform="translate(14.429 9.22)"/>
        <path id="Path_2414" data-name="Path 2414" d="M128.827,106.92s-3.233,4.078-4.836,4.7-7.981-4.529-7.981-4.529-8.779,4.9-16.05,5.761c0,0-6.489,2.342-8.914,20.211h58.21s-.411-3.738,0-3.738,3.2,3.738,7.723,3.738h19.8s16.257-15.755,23.775-26.785L193.56,99.32S169.8,124.8,167.823,124.8s-17.089-12.694-17.705-13.063-16.24-.626-21.291-4.819" transform="translate(11.27 12.294)" fill="#488265"/>
        <g id="Group_1154" data-name="Group 1154" transform="translate(205.035 113.166)" opacity="0.55" style="mix-blend-mode: screen;isolation: isolate">
          <g id="Group_1153" data-name="Group 1153">
            <g id="Group_1152" data-name="Group 1152" clip-path="url(#clip-path-5)">
              <path id="Path_2415" data-name="Path 2415" d="M199.377,132.85H182.449s39.989-31.267,40.773-32.149v8.967c-4.422,4.592-23.846,23.183-23.846,23.183" transform="translate(-182.45 -100.701)" fill="#f9f9f9"/>
            </g>
          </g>
        </g>
        <g id="Group_1157" data-name="Group 1157" transform="translate(140.303 73.897)" opacity="0.55" style="mix-blend-mode: screen;isolation: isolate">
          <g id="Group_1156" data-name="Group 1156">
            <g id="Group_1155" data-name="Group 1155" clip-path="url(#clip-path-6)">
              <path id="Path_2416" data-name="Path 2416" d="M230.352,65.757V78.412c-3.009,3.684-70.786,54.832-74.924,58.8H124.849c8.177-6.483,102.378-69.115,105.5-71.457" transform="translate(-124.849 -65.757)" fill="#f9f9f9"/>
            </g>
          </g>
        </g>
        <g id="Group_1160" data-name="Group 1160" transform="translate(103.971 65.703)" opacity="0.55" style="mix-blend-mode: screen;isolation: isolate">
          <g id="Group_1159" data-name="Group 1159">
            <g id="Group_1158" data-name="Group 1158" clip-path="url(#clip-path-7)">
              <path id="Path_2417" data-name="Path 2417" d="M172.384,58.466h16.068c-.117.1-.236.192-.353.291-6.68,5.737-72.81,71.329-80.226,79.321l-15.354.037c9.9-10.269,61.36-61.754,79.865-79.649" transform="translate(-92.519 -58.466)" fill="#f9f9f9"/>
            </g>
          </g>
        </g>
        <path id="Path_2418" data-name="Path 2418" d="M136.888,143.05s-1.849-2.712-7.455-1.788-8.873,10.367-8.873,10.367h15.9s1.418-7.285.432-8.579" transform="translate(14.923 17.462)" fill="#83cdb9"/>
        <path id="Path_2419" data-name="Path 2419" d="M174.57,143.05s1.849-2.712,7.455-1.788,8.873,10.367,8.873,10.367H175s-1.418-7.285-.432-8.579" transform="translate(21.566 17.462)" fill="#83cdb9"/>
        <path id="Path_2420" data-name="Path 2420" d="M138.674,118.706s-5.546.124-9.612,3.205S109.1,150.3,108.358,152.35s3.319,3.749,8.561,3.749,7.707.47,9.678-1.7,13.653-11.944,16.735-18.97-1.774-17.087-4.658-16.722" transform="translate(13.402 14.693)" fill="#a6dbcd"/>
        <path id="Path_2421" data-name="Path 2421" d="M175.788,118.706s5.547.124,9.613,3.205,19.965,28.392,20.7,30.439-3.319,3.749-8.561,3.749-7.707.47-9.679-1.7-13.652-11.944-16.734-18.97,1.774-17.087,4.657-16.722" transform="translate(21.061 14.693)" fill="#a6dbcd"/>
        <path id="Path_2422" data-name="Path 2422" d="M160.6,105.4h-9.329l-1.644,8.617h12.617Z" transform="translate(18.522 13.046)" fill="#e17a17"/>
        <path id="Path_2423" data-name="Path 2423" d="M156.683,82.579c-.034,0-.06.009-.093.009s-.061-.009-.094-.009c-5.069,0-12.109,2.892-12.109,11.2s2.066,19.165,12.14,19.165c.022,0,.04,0,.063,0s.04,0,.063,0c10.075,0,12.14-10.851,12.14-19.165s-7.04-11.2-12.11-11.2" transform="translate(17.873 10.222)"/>
        <path id="Path_2424" data-name="Path 2424" d="M144.181,233.049l-7.641,4.684s2.712,4.683,1.643,6.08-7.065,8.216-7.311,11.584,1.643,5.422,2.629,5.094,18.98-13.145,18.568-15.364-7.888-12.077-7.888-12.077" transform="translate(16.197 28.848)"/>
        <path id="Path_2425" data-name="Path 2425" d="M167.916,233.049l7.641,4.684s-2.711,4.683-1.643,6.08,7.065,8.216,7.312,11.584-1.644,5.422-2.63,5.094-18.98-13.145-18.568-15.364,7.888-12.077,7.888-12.077" transform="translate(19.808 28.848)"/>
        <rect id="Rectangle_1315" data-name="Rectangle 1315" width="6.767" height="128.306" transform="translate(73.9 169.093)" fill="#a6dbcd"/>
        <rect id="Rectangle_1316" data-name="Rectangle 1316" width="6.767" height="128.306" transform="translate(266.933 169.093)" fill="#a6dbcd"/>
        <rect id="Rectangle_1317" data-name="Rectangle 1317" width="224.853" height="3.402" transform="translate(61.533 169.091)" fill="#b0cec0"/>
        <path id="Path_2426" data-name="Path 2426" d="M177.554,168.8c-4.857-2.793-30.071-2.793-34.928,0s-29.833,21.115-29.833,25.551S139.9,249.641,139.9,249.641l9.941-5.072s-16.551-42.58-14.54-44.428,24.783-3.247,24.783-3.247,22.775,1.4,24.785,3.247-14.541,44.428-14.541,44.428l9.942,5.072s27.112-50.856,27.112-55.292-24.977-22.759-29.834-25.551" transform="translate(13.962 20.635)" fill="#e17a17"/>
        <path id="Path_2427" data-name="Path 2427" d="M162.048,110.088c-.423-.423-4.013-.148-5.8-.148s-5.38-.274-5.8.148-3.285,6.806-3.285,6.806l9.087,1.925,9.087-1.925s-2.863-6.383-3.286-6.806" transform="translate(18.216 13.598)" fill="#458c6a"/>
        <path id="Path_2428" data-name="Path 2428" d="M185.744,259.33c-2.382-3.416-20.539-16.631-20.539-16.631H150.98s-18.157,13.215-20.539,16.631-1.885,6.951.906,6.951h8.906a1.117,1.117,0,0,0,1.1-.879,11.524,11.524,0,0,0,.233-2.444,1.135,1.135,0,0,0-.959-1.126c-.561-.08-1.179-.212-1.217-.42-.09-.479.217-1.351,2.04-2.854,3.286-2.712,11.122-8.709,11.122-8.709l5.52.164,5.52-.164s7.836,6,11.122,8.709c1.823,1.5,2.13,2.376,2.041,2.854-.039.208-.657.34-1.217.42a1.136,1.136,0,0,0-.96,1.126,11.6,11.6,0,0,0,.233,2.444,1.116,1.116,0,0,0,1.1.879h8.9c2.793,0,3.289-3.534.907-6.951" transform="translate(15.958 30.043)" fill="#fbd269"/>
        <path id="Path_2429" data-name="Path 2429" d="M155.6,193.569h-6.536l3.268,58.991h6.537l3.268-58.991Z" transform="translate(18.452 23.961)" fill="#fbd269"/>
        <path id="Path_2430" data-name="Path 2430" d="M156.8,191.3H139.339s1.777,20.088,17.464,20.088S174.267,191.3,174.267,191.3Z" transform="translate(17.248 23.681)" fill="#fbd269"/>
        <path id="Path_2431" data-name="Path 2431" d="M188.875,120.507c-4.436-5.916-30.528-7.065-30.528-7.065s-26.09,1.15-30.528,7.065,7.724,54.882,11.831,62.77,18.7,7.723,18.7,7.723,14.589.165,18.7-7.723,16.267-56.855,11.83-62.77" transform="translate(15.703 14.042)" fill="#006233"/>
        <path id="Path_2432" data-name="Path 2432" d="M164.8,166.235c-1.492-.995-16.3-.995-17.793,0-1.725,1.15,2.464,29,3.122,31.8s10.892,2.793,11.549,0,4.847-30.647,3.122-31.8" transform="translate(18.146 20.485)" fill="#fbd269"/>
        <rect id="Rectangle_1318" data-name="Rectangle 1318" width="68.345" height="9.12" transform="translate(139.879 211.657)" fill="#fbd269"/>
        <rect id="Rectangle_1319" data-name="Rectangle 1319" width="42.209" height="6.755" transform="translate(74.54 162.336)" fill="#006233"/>
        <rect id="Rectangle_1320" data-name="Rectangle 1320" width="42.209" height="6.754" transform="translate(69.919 155.582)" fill="#a6dbcd"/>
        <path id="Path_2433" data-name="Path 2433" d="M232.342,136.231h-2.407v1.326H231.7a3.6,3.6,0,0,1,3.6,3.6v.073a3.6,3.6,0,0,1-3.6,3.6h-1.764v1.326h2.407a4.916,4.916,0,0,0,4.917-4.915v-.1a4.916,4.916,0,0,0-4.917-4.915" transform="translate(28.463 16.863)" fill="#006233"/>
        <path id="Path_2434" data-name="Path 2434" d="M230.8,152.555H219.9a2.891,2.891,0,0,1-2.891-2.89V133.6h16.684v16.069a2.89,2.89,0,0,1-2.89,2.89" transform="translate(26.862 16.537)" fill="#006233"/>
        <path id="Path_2435" data-name="Path 2435" d="M133.342,70.08H99.752a1.68,1.68,0,0,1-1.68-1.679V46.765a1.68,1.68,0,0,1,1.68-1.68h33.59a1.68,1.68,0,0,1,1.68,1.68V68.4a1.68,1.68,0,0,1-1.68,1.679" transform="translate(12.14 5.581)" fill="#006233"/>
        <rect id="Rectangle_1321" data-name="Rectangle 1321" width="33.59" height="21.013" transform="translate(111.892 52.658)" fill="#fff"/>
        <path id="Path_2436" data-name="Path 2436" d="M110.054,52.326V62.619l10.02-5.146Z" transform="translate(13.623 6.477)" fill="#a6dbcd"/>
        <rect id="Rectangle_1322" data-name="Rectangle 1322" width="92.294" height="5.177" transform="translate(0 38.209)" fill="#a6dbcd"/>
        <rect id="Rectangle_1323" data-name="Rectangle 1323" width="6.462" height="38.209" transform="translate(49.587)" fill="#006233"/>
        <rect id="Rectangle_1324" data-name="Rectangle 1324" width="6.462" height="33.714" transform="translate(39.754 4.495)" fill="#e17a17"/>
        <rect id="Rectangle_1325" data-name="Rectangle 1325" width="6.461" height="33.713" transform="matrix(0.929, -0.371, 0.371, 0.929, 57.383, 6.24)" fill="#a6dbcd"/>
        <rect id="Rectangle_1326" data-name="Rectangle 1326" width="6.461" height="33.713" transform="matrix(0.929, -0.371, 0.371, 0.929, 66.092, 6.24)" fill="#e17a17"/>
        <rect id="Rectangle_1327" data-name="Rectangle 1327" width="32.496" height="5.802" transform="translate(4.214 31.747)" fill="#fde9b7"/>
        <path id="Path_2437" data-name="Path 2437" d="M171.619,56.793H191.33l-8.155,9.849,17.582-9.849h5.527a1.733,1.733,0,0,0,1.734-1.733V32.732A1.733,1.733,0,0,0,206.283,31H171.619a1.732,1.732,0,0,0-1.733,1.733V55.06a1.732,1.732,0,0,0,1.733,1.733" transform="translate(21.029 3.837)" fill="#a6dbcd"/>
        <path id="Path_2438" data-name="Path 2438" d="M193.089,40.424c0,2.888-3.633,3.738-3.633,4.864v.446h-3.633V44.672c0-1.551,2.763-2.443,2.763-4.164a1.4,1.4,0,0,0-1.4-1.487c-1.149,0-1.382.892-1.382,1.785a5.151,5.151,0,0,0,.021.573h-3.909c-.021-.276-.064-.532-.064-.807,0-2.762,2.466-4.483,5.8-4.483,3.249,0,5.438,1.7,5.438,4.334m-3.315,10.537h-4.205v-3.93h4.205Z" transform="translate(22.51 4.467)" fill="#fff"/>
        <path id="Path_2439" data-name="Path 2439" d="M27.54,204.72c-3.724-1.576-6.416-2.887-5.783-8.827a9.032,9.032,0,0,1,3.326-6.482c1.641-1.381,2.472-1.895,2.979-4.186.77-3.476-.2-6.327,1.465-9.5,1.781-3.393,5.62-3.052,7.4-6.218,1.542-2.739,2.252-5.772,5.74-6.839,3.088-.946,4.965,1.7,3.915,4.393-.609,1.567-1.914,2.915-2.3,4.581-.38,1.635.414,2.757,1.193,4.1,1.853,3.187,2.807,7.024-.791,10.269-2.149,1.936-3.792,3.611-2.711,6.8,1.234,3.637,1.868,5.864-1.42,9.06-2.466,2.4-4.755,2.207-7.517,2.39-2.488.164-5.72,1.219-7.747-.434Z" transform="translate(2.682 20.111)" fill="#fde9b7"/>
        <path id="Path_2440" data-name="Path 2440" d="M22.179,204.1c-2.662,2.851-4.94,5.086-8.871,1.695a8,8,0,0,1-2.817-6.772c.039-2.336.2-3.39-1.25-5.181-2.28-2.809-5.544-3.819-7.02-7.444-1.589-3.9,1.964-6.4.677-9.916-1.117-3.047-3.219-5.907-1.217-8.541,1.629-2.145,5-.86,6.281,1.6.733,1.415.868,3,1.806,4.363.907,1.314,2.132,1.65,3.442,2.122,2.9,1.043,5.512,2.807,5.752,6.53.147,2.3.371,4.2,2.563,5.176,2.316,1.034,3.605,1.7,4.036,5.193.333,2.694-.539,4.229-1.445,6.382-.869,2.068-1.6,5.307-3.471,6.49Z" transform="translate(0.105 20.654)" fill="#006233"/>
        <path id="Path_2441" data-name="Path 2441" d="M29.39,200.216a3.36,3.36,0,0,1-.352-.018.281.281,0,0,1-.252-.308.267.267,0,0,1,.308-.252c1.845.2,3.75-1.487,4.808-2.98a4.94,4.94,0,0,0,.673-3.63l-.071-1.123c-.18-2.936-.335-5.472,1.944-7.773,2.523-2.549,3.142-4.124,3.013-7.668-.01-.289-.027-.592-.045-.9a14.728,14.728,0,0,1,.082-3.52,7.481,7.481,0,0,1,.677-1.747,5.238,5.238,0,0,0,.691-2.126.281.281,0,0,1,.281-.278h0a.281.281,0,0,1,.278.284,5.7,5.7,0,0,1-.748,2.364,7.094,7.094,0,0,0-.63,1.614,14.252,14.252,0,0,0-.071,3.376c.018.316.034.625.045.917.135,3.691-.547,5.428-3.175,8.082-2.1,2.123-1.962,4.427-1.783,7.344l.07,1.117a5.442,5.442,0,0,1-.774,3.994c-1.132,1.6-3,3.233-4.97,3.233" transform="translate(3.563 20.782)" fill="#fff"/>
        <path id="Path_2442" data-name="Path 2442" d="M35.148,190.781a1.514,1.514,0,0,1-1.169-.607.281.281,0,0,1,.429-.364.9.9,0,0,0,.944.383c1.175-.294,2.464-2.821,2.671-3.766.612-2.789,1.346-4.213,4.076-5.267a.281.281,0,0,1,.2.525c-2.622,1.013-3.172,2.321-3.73,4.863-.183.842-1.506,3.8-3.081,4.191a1.474,1.474,0,0,1-.343.043" transform="translate(4.198 22.423)" fill="#fff"/>
        <path id="Path_2443" data-name="Path 2443" d="M21.883,202.011a3.127,3.127,0,0,1-1.481-.361c-1.957-1.034-2.861-4.067-3.66-6.744a19.242,19.242,0,0,0-1.215-3.385,15.289,15.289,0,0,0-4.867-5.358c-2.747-2.013-3.411-3.537-3.905-6.821-.406-2.686-.951-5.393-2.163-7A.281.281,0,1,1,5.04,172c1.289,1.707,1.853,4.5,2.27,7.256.476,3.165,1.075,4.541,3.682,6.453a16.069,16.069,0,0,1,5.027,5.539,19.432,19.432,0,0,1,1.262,3.494c.768,2.571,1.636,5.485,3.384,6.408a2.888,2.888,0,0,0,2.327.11.285.285,0,0,1,.354.182.281.281,0,0,1-.182.354,4.231,4.231,0,0,1-1.28.212" transform="translate(0.561 21.277)" fill="#fff"/>
        <path id="Path_2444" data-name="Path 2444" d="M12.409,187.458a.288.288,0,0,1-.173-.057.285.285,0,0,1-.051-.4c.824-1.066.321-2.758-.214-4.551-.464-1.562-.944-3.177-.534-4.491a.281.281,0,0,1,.536.167c-.358,1.151.1,2.682.537,4.161.55,1.851,1.119,3.764.12,5.058a.287.287,0,0,1-.223.108" transform="translate(1.397 22.005)" fill="#fff"/>
        <path id="Path_2445" data-name="Path 2445" d="M16.1,190.631a.273.273,0,0,1-.1-.02,6.373,6.373,0,0,1-1-.521,3.21,3.21,0,0,0-1.581-.591,6.928,6.928,0,0,0-1.033.029,3.964,3.964,0,0,1-2.27-.325,12.45,12.45,0,0,1-3.816-3.344c-.183-.224-.411-.574-.655-.947-.349-.533-1-1.526-1.245-1.589a.287.287,0,0,1-.215-.333.267.267,0,0,1,.31-.219c.439.072.906.742,1.619,1.834.235.359.459.7.62.9a12.521,12.521,0,0,0,3.635,3.2,3.373,3.373,0,0,0,1.974.265,7.626,7.626,0,0,1,1.113-.028,3.76,3.76,0,0,1,1.833.669,5.975,5.975,0,0,0,.92.483.277.277,0,0,1,.157.363.28.28,0,0,1-.26.178" transform="translate(0.516 22.624)" fill="#fff"/>
        <path id="Path_2446" data-name="Path 2446" d="M19.682,206.51c-3.986-3.361-8.725-5.623-7.652-12.029.889-5.3,7.006-6.666,5.087-12.375-1.225-3.647-4.39-7.854-3.312-11.924,1.151-4.348,6.826-2.608,8.045-6.665,1.031-3.426-2.582-7.392.632-10.2,2.834-2.471,7.854-.126,9.377,2.713,1.945,3.626-1.27,6.319-.739,9.854.343,2.287,2.534,2.62,4.14,3.938a13.1,13.1,0,0,1,3.9,5.177c2.068,5.873-3.839,8.006-5.631,12.532-1.689,4.268,4.073,5.591,4.508,9.893.479,4.75-4.6,8.5-8.692,9.275-2.824.534-7.138,1.933-9.658-.192" transform="translate(1.47 18.85)" fill="#e17a17"/>
        <path id="Path_2447" data-name="Path 2447" d="M22.96,206.873a.279.279,0,0,1-.269-.361,49.548,49.548,0,0,0,.509-22.606c-1.713-7.343-.164-12.479,1.081-16.606.741-2.455,1.379-4.576,1.032-6.453a.281.281,0,0,1,.225-.328.278.278,0,0,1,.328.225c.372,2.012-.285,4.193-1.047,6.719-1.225,4.062-2.75,9.12-1.072,16.315a50.087,50.087,0,0,1-.518,22.895.281.281,0,0,1-.269.2" transform="translate(2.778 19.869)" fill="#fff"/>
        <path id="Path_2448" data-name="Path 2448" d="M23.566,182.6a.281.281,0,0,1-.279-.239.278.278,0,0,1,.236-.318c2.33-.355,4.992-2.484,5.24-5.086.029-.312.051-.654.072-1.011.1-1.706.233-3.83,1.476-4.858a3.078,3.078,0,0,1,2.421-.564.279.279,0,0,1,.243.314.283.283,0,0,1-.314.243,2.5,2.5,0,0,0-1.992.439c-1.053.873-1.174,2.862-1.272,4.46-.02.366-.044.712-.073,1.028-.282,2.96-3.186,5.206-5.717,5.59a.264.264,0,0,1-.04,0" transform="translate(2.882 21.104)" fill="#fff"/>
        <path id="Path_2449" data-name="Path 2449" d="M22.773,182.774a4.236,4.236,0,0,1-2.778-.99c-1.135-.993-1.706-2.726-1.65-5.012.006-.225.019-.487.034-.773.081-1.62.2-4.069-.806-5.172a1.782,1.782,0,0,0-1.317-.571.281.281,0,0,1,.017-.562h0a2.355,2.355,0,0,1,1.712.753c1.168,1.275,1.038,3.866.951,5.58-.012.281-.026.537-.031.759-.053,2.115.452,3.7,1.459,4.577a4.368,4.368,0,0,0,3.7.755.277.277,0,0,1,.323.233.283.283,0,0,1-.233.323,7.674,7.674,0,0,1-1.38.1" transform="translate(1.979 21.006)" fill="#fff"/>
        <path id="Path_2450" data-name="Path 2450" d="M25.1,198.648a2.669,2.669,0,0,1-1.02-.193.281.281,0,1,1,.212-.52c1.69.692,4.279-1.211,5.256-2.471a7.769,7.769,0,0,0,.96-2.206c.509-1.538,1.033-3.13,2.46-3.483a.272.272,0,0,1,.341.2.28.28,0,0,1-.2.34c-1.126.279-1.6,1.721-2.061,3.113A8.125,8.125,0,0,1,30,195.808c-.877,1.13-3,2.84-4.892,2.84" transform="translate(2.96 23.49)" fill="#fff"/>
        <path id="Path_2451" data-name="Path 2451" d="M23.579,199.048a3.32,3.32,0,0,1-1.089-.193c-2.061-.719-3.783-3.275-4.437-4.817a9.941,9.941,0,0,1-.435-3.231c-.07-1.962-.143-3.991-1.429-4.634a.281.281,0,0,1,.252-.5c1.586.793,1.668,3.09,1.74,5.117a9.61,9.61,0,0,0,.391,3.032c.591,1.395,2.228,3.85,4.1,4.5a2.469,2.469,0,0,0,2.073-.146.281.281,0,1,1,.27.493,2.976,2.976,0,0,1-1.44.378" transform="translate(1.985 22.98)" fill="#fff"/>
        <path id="Path_2452" data-name="Path 2452" d="M7.24,199.064a52.993,52.993,0,0,0-3.177,18.457c0,19.558,9.708,35.414,21.685,35.414s21.685-15.856,21.685-35.414a52.994,52.994,0,0,0-3.176-18.457Z" transform="translate(0.503 24.641)" fill="#a6dbcd"/>
        <path id="Path_2453" data-name="Path 2453" d="M46.439,207.461a48.9,48.9,0,0,0-2.281-8.4H7.141a48.8,48.8,0,0,0-2.282,8.4Z" transform="translate(0.601 24.641)" fill="#006233"/>
        <path id="Path_2454" data-name="Path 2454" d="M220.21,148.074c.2-.2.4-.4.6-.6a.178.178,0,0,0,.057-.138q0-2.333,0-4.666a.253.253,0,0,0-.081-.2c-.178-.172-.351-.347-.524-.521-.014-.015-.04-.026-.03-.047s.036-.011.054-.011c.624,0,1.249,0,1.872,0a.168.168,0,0,1,.174.1q.619,1.143,1.245,2.279c.08.146.161.291.24.435.008.015.011.035.03.034s.021-.022.027-.037c.214-.526.437-1.047.682-1.56.042-.087.088-.172.129-.26a.813.813,0,0,1,.235-.248,7.852,7.852,0,0,1,1-.735,6.346,6.346,0,0,1,1.928-.781,6.517,6.517,0,0,1,.956-.139c-.112.045-.225.087-.335.134a7.5,7.5,0,0,0-1.26.709c-.2.135-.388.276-.577.421a.136.136,0,0,0-.06.118q0,2.49,0,4.98a.224.224,0,0,0,.058.158c.164.182.325.37.484.556a.25.25,0,0,1,.026.04h-2.6c-.019-.034.006-.052.025-.072.083-.085.172-.164.26-.245s.164-.161.254-.234a.2.2,0,0,0,.073-.176v-3.506c0-.015,0-.028,0-.043s.01-.052-.013-.061-.034.024-.048.039a9.679,9.679,0,0,0-.955,1.428,9.482,9.482,0,0,0-.673,1.532c-.047.14-.091.281-.125.425a.414.414,0,0,1-.1.19c-.119.136-.237.274-.356.411-.007.008-.012.016-.02.024a.044.044,0,0,1-.053.014.045.045,0,0,1-.022-.053,2.821,2.821,0,0,1,.072-.3c.1-.37.224-.734.352-1.1a.171.171,0,0,0-.013-.156c-.254-.45-.5-.9-.757-1.353-.2-.364-.408-.728-.608-1.09,0,.19,0,.383,0,.575q0,1.47,0,2.938a.273.273,0,0,0,.09.214c.171.166.338.335.506.5.019.021.058.04.028.081a.116.116,0,0,1-.048,0q-1.069,0-2.136,0c-.018,0-.045.015-.056-.018" transform="translate(27.259 17.451)" fill="#fff"/>
        <path id="Path_2455" data-name="Path 2455" d="M230.844,136.772a4.459,4.459,0,0,0-.234.409c-.229.41-.456.824-.682,1.235a.141.141,0,0,1-.087.07c-.456.157-.911.317-1.369.472a8.235,8.235,0,0,0-1.88.911,9.479,9.479,0,0,0-1.127.856c-.155.137-.3.279-.448.425a.131.131,0,0,1-.055.044.457.457,0,0,1,.055-.145,5.561,5.561,0,0,1,.819-1.261,5.242,5.242,0,0,1,1.19-.984,11.366,11.366,0,0,1,1.706-.846,9.716,9.716,0,0,0,1.326-.637,4.561,4.561,0,0,0,.786-.572Z" transform="translate(27.847 16.927)" fill="#fbd269"/>
        <path id="Path_2456" data-name="Path 2456" d="M222.455,147.293l.011.024H220.2l.01-.024a.139.139,0,0,0,.076.012h2.091a.129.129,0,0,0,.076-.012" transform="translate(27.258 18.233)" fill="#fff"/>
        <path id="Path_2457" data-name="Path 2457" d="M224.442,142.313c.055-.093.108-.188.165-.279a6.1,6.1,0,0,1,.711-.917,4.859,4.859,0,0,1,1.125-.852,10.843,10.843,0,0,1,2.245-.942l.653-.2c.021-.007.042-.013.064-.019s.029-.013.037,0,0,.024-.008.034l-.164.3c-.136.251-.274.5-.409.75a.164.164,0,0,1-.117.092c-.42.1-.844.184-1.26.3a7.2,7.2,0,0,0-1.614.7,8.244,8.244,0,0,0-1.141.795c-.094.079-.185.163-.278.244l-.011-.007" transform="translate(27.783 17.218)" fill="#fff"/>
      </g>
    </g>
  </g>
</svg>
