<svg xmlns="http://www.w3.org/2000/svg" width="79" height="79" viewBox="0 0 79 79">
  <g id="digital-wallet" transform="translate(-99 -5848)">
    <g id="Ellipse_19" data-name="Ellipse 19" transform="translate(99 5848)" fill="#006233" stroke="#fff" stroke-width="1">
      <circle cx="39.5" cy="39.5" r="39.5" stroke="none"/>
      <circle cx="39.5" cy="39.5" r="39" fill="none"/>
    </g>
    <g id="_002-digital-wallet" data-name="002-digital-wallet" transform="translate(118 5852.417)">
      <path id="Path_2376" data-name="Path 2376" d="M38.987,30.823h-.041V24.1a2.516,2.516,0,0,0-2.513-2.513H2.513A2.516,2.516,0,0,0,0,24.1V46.575a2.516,2.516,0,0,0,2.513,2.513H36.434a2.516,2.516,0,0,0,2.513-2.513V39.848h.041A2.516,2.516,0,0,0,41.5,37.335v-4a2.516,2.516,0,0,0-2.513-2.513ZM2.513,22.718H36.434A1.38,1.38,0,0,1,37.812,24.1v.784H1.135V24.1a1.38,1.38,0,0,1,1.378-1.378ZM36.434,47.953H2.513a1.38,1.38,0,0,1-1.378-1.378v-.784H37.812v.784a1.38,1.38,0,0,1-1.378,1.378Zm1.378-3.3H1.135V42.306h9.321a.567.567,0,0,0,.4-.166l2.03-2.03a1.763,1.763,0,1,0-.8-.8l-1.867,1.867H1.135V39.1H4.144a1.756,1.756,0,1,0,0-1.135H1.135V35.9H19.726a1.755,1.755,0,1,0-.015-1.135H1.135V32.7H6.74a1.756,1.756,0,1,0,0-1.135H1.135V29.5h9.116l2.416,2.01a1.763,1.763,0,1,0,.726-.872L10.819,28.5a.568.568,0,0,0-.363-.13H1.135V26.014H37.812v4.809H32.8a2.516,2.516,0,0,0-2.513,2.513v4A2.516,2.516,0,0,0,32.8,39.848h5.012Zm-24.77-6.12a.622.622,0,1,1,.622.622.622.622,0,0,1-.622-.622Zm-7.86,0a.622.622,0,1,1,.622.622.622.622,0,0,1-.622-.622Zm15.575-3.222a.622.622,0,1,1,.622.622.622.622,0,0,1-.622-.622ZM7.779,32.134a.622.622,0,1,1,.622.622A.622.622,0,0,1,7.779,32.134Zm6.527-.622a.622.622,0,1,1-.622.622.622.622,0,0,1,.622-.622Zm26.059,5.823a1.38,1.38,0,0,1-1.378,1.378H32.8a1.38,1.38,0,0,1-1.378-1.378v-4A1.38,1.38,0,0,1,32.8,31.958h6.187a1.38,1.38,0,0,1,1.378,1.378Z" fill="#fbd269"/>
      <path id="Path_2377" data-name="Path 2377" d="M103.484,58.917a.567.567,0,0,0-.567.567V61.6a.567.567,0,0,0,1.135,0v-2.12A.567.567,0,0,0,103.484,58.917Z" transform="translate(-69.549 -25.23)" fill="#fbd269"/>
    </g>
  </g>
</svg>
