<svg xmlns="http://www.w3.org/2000/svg" width="79" height="79" viewBox="0 0 79 79">
  <g id="learning" transform="translate(-253 -5823.502)">
    <g id="Ellipse_19" data-name="Ellipse 19" transform="translate(253 5823.502)" fill="#006233" stroke="#fff" stroke-width="1">
      <circle cx="39.5" cy="39.5" r="39.5" stroke="none"/>
      <circle cx="39.5" cy="39.5" r="39" fill="none"/>
    </g>
    <g id="Page-1" transform="translate(272.156 5843.958)">
      <g id="_001---Degree" data-name="001---Degree" transform="translate(0 0)">
        <path id="Shape" d="M39.3,6.778,20.552.079a1.374,1.374,0,0,0-.915,0L.894,6.778a1.34,1.34,0,0,0,0,2.521L10.05,12.57v4.176c0,2.6,9.019,2.679,10.047,2.679s10.047-.075,10.047-2.679V12.57l2.009-.713V13.4a1.34,1.34,0,0,0,1.34,1.34h1.34a1.34,1.34,0,0,0,1.34-1.34V11.387a1.981,1.981,0,0,0-.218-.892L39.3,9.3a1.34,1.34,0,0,0,0-2.521Zm-10.5,8.495c-2.551-1.161-7.927-1.206-8.708-1.206s-6.156.044-8.708,1.206V9.437c.4-.516,3.561-1.4,8.708-1.4s8.306.883,8.708,1.4ZM20.1,18.085c-4.957,0-8.069-.819-8.651-1.34.582-.521,3.7-1.34,8.651-1.34s8.069.819,8.651,1.34C28.167,17.267,25.054,18.085,20.1,18.085Zm12.371-7.767-2.324.829V9.378c0-2.6-9.019-2.679-10.047-2.679S10.05,6.774,10.05,9.378v1.769L1.342,8.038l18.764-6.7L33.494,6.124V9.5A2.013,2.013,0,0,0,32.468,10.319ZM34.833,13.4h-1.34V11.387a.67.67,0,1,1,1.34,0Zm0-3.922V6.6l4.019,1.435Z" transform="translate(-0.003 -0.001)" fill="#fbd269"/>
        <path id="Shape-2" data-name="Shape" d="M38.18,31a.654.654,0,0,0-.12.011A112.154,112.154,0,0,1,20.095,32.34,112.154,112.154,0,0,1,2.129,31.011.755.755,0,0,0,2.009,31C1.541,31,0,31.531,0,38.368s1.541,7.368,2.009,7.368a.763.763,0,0,0,.12-.012,104.76,104.76,0,0,1,13.8-1.258L14.62,47.6a1.334,1.334,0,0,0,1.77,1.719L16.9,49.1l.222.51a1.332,1.332,0,0,0,1.232.812h.017a1.335,1.335,0,0,0,1.228-.836L20.764,46.8l1.159,2.774a1.34,1.34,0,0,0,1.232.847h.02a1.33,1.33,0,0,0,1.227-.8l.224-.514.5.216A1.335,1.335,0,0,0,26.905,47.6l-1.282-3.074a102.13,102.13,0,0,1,12.44,1.206.655.655,0,0,0,.117.009c.469,0,2.009-.531,2.009-7.368S38.649,31,38.18,31ZM22.238,33.659a14.107,14.107,0,0,1,.483,3.133,4.648,4.648,0,0,0-4.663.433,18.1,18.1,0,0,0-.46-3.571q1.217.025,2.5.025C20.827,33.679,21.537,33.671,22.238,33.659ZM20.764,44.4a3.349,3.349,0,1,1,3.349-3.349A3.349,3.349,0,0,1,20.764,44.4ZM2.009,32.675a18.786,18.786,0,0,1,.67,5.693,18.786,18.786,0,0,1-.67,5.693,18.786,18.786,0,0,1-.67-5.693A18.786,18.786,0,0,1,2.009,32.675Zm1.353,11.5a18.706,18.706,0,0,0,.656-5.807,18.7,18.7,0,0,0-.657-5.809A117.523,117.523,0,0,0,16.2,33.62a17.243,17.243,0,0,1,.547,4.748c0,.1,0,.19,0,.283a4.641,4.641,0,0,0-.216,4.389l-.029.071A116.657,116.657,0,0,0,3.363,44.177Zm15,4.91-.489-1.125a.67.67,0,0,0-.878-.348l-1.127.5,1.571-3.766A4.684,4.684,0,0,0,19.8,45.637Zm6.18-1.474a.67.67,0,0,0-.878.348l-.5,1.114-1.436-3.438A4.689,4.689,0,0,0,24.1,44.342l1.567,3.751Zm13.508-3.249a108.478,108.478,0,0,0-12.995-1.206L25,43.042a4.661,4.661,0,0,0-.9-5.282,18.644,18.644,0,0,0-.478-4.127,111.809,111.809,0,0,0,14.423-1.261c.311.528.8,2.616.8,6s-.5,5.467-.8,5.995Z" transform="translate(0 -10.236)" fill="#fbd269"/>
      </g>
    </g>
  </g>
</svg>
