<svg xmlns="http://www.w3.org/2000/svg" width="79" height="79" viewBox="0 0 79 79">
  <g id="student-skills" transform="translate(-704 -5990)">
    <g id="Ellipse_21" data-name="Ellipse 21" transform="translate(704 5990)" fill="#006233" stroke="#fff" stroke-width="1">
      <circle cx="39.5" cy="39.5" r="39.5" stroke="none"/>
      <circle cx="39.5" cy="39.5" r="39" fill="none"/>
    </g>
    <g id="_004-personal-information" data-name="004-personal-information" transform="translate(695 6010.154)">
      <path id="Path_2388" data-name="Path 2388" d="M52,38.753H32.7a1.7,1.7,0,0,1-1.7-1.7V8.644a1.7,1.7,0,0,1,1.7-1.7h3.263a.568.568,0,1,1,0,1.135H32.7a.568.568,0,0,0-.568.568V37.05a.568.568,0,0,0,.568.568H52a.568.568,0,0,0,.568-.568V23.842H39.515a1.7,1.7,0,0,1-1.7-1.7V1.7a1.7,1.7,0,0,1,1.7-1.7h17.03a1.7,1.7,0,0,1,1.7,1.7V7.38a.568.568,0,1,1-1.135,0V1.7a.568.568,0,0,0-.568-.568H39.515a.568.568,0,0,0-.568.568V22.139a.568.568,0,0,0,.568.568h17.03a.568.568,0,0,0,.568-.568V9.65a.568.568,0,0,1,.568-.568h3.406a.568.568,0,1,1,0,1.135H58.248v2.271h2.838a.568.568,0,1,1,0,1.135H58.248v2.271h2.838a.568.568,0,1,1,0,1.135H58.248V19.3h2.838a.568.568,0,1,1,0,1.135H58.248v1.7a1.7,1.7,0,0,1-.1.568h2.936a.568.568,0,1,1,0,1.135h-7.38v2.271h7.38a.568.568,0,0,1,0,1.135h-7.38v3.557h9.65a.568.568,0,0,0,.568-.568v-25a.568.568,0,0,0-.568-.568H59.951a.568.568,0,1,1,0-1.135h3.406a1.7,1.7,0,0,1,1.7,1.7v25a1.7,1.7,0,0,1-1.7,1.7h-9.65v3.406h6.244a.568.568,0,0,0,.568-.568V33.644a.568.568,0,1,1,1.135,0v1.135a1.7,1.7,0,0,1-1.7,1.7H53.707v.568A1.7,1.7,0,0,1,52,38.753ZM55.41,21.571H40.65A.568.568,0,0,1,40.083,21V19.032c0-2.917,1.929-3.584,3.337-4.072,1.162-.4,1.822-.673,1.938-1.547a4.747,4.747,0,0,1-2.077-3.924V7.148a4.749,4.749,0,0,1,9.5,0V9.489A4.747,4.747,0,0,1,50.7,13.413c.116.874.776,1.145,1.938,1.547,1.408.487,3.337,1.155,3.337,4.072V21A.568.568,0,0,1,55.41,21.571ZM41.218,20.436H54.842v-1.4c0-2.108-1.192-2.521-2.573-3-1.02-.353-2.249-.778-2.614-2.082a4.753,4.753,0,0,1-3.251,0c-.365,1.3-1.594,1.729-2.614,2.082-1.38.478-2.573.89-2.573,3Zm6.812-16.9a3.618,3.618,0,0,0-3.613,3.613V9.489a3.613,3.613,0,0,0,7.227,0V7.148A3.618,3.618,0,0,0,48.03,3.535Z" fill="#fbd269"/>
    </g>
  </g>
</svg>
